<mxfile host="app.diagrams.net" modified="2024-06-27T16:42:22.890Z" agent="Mozilla/5.0 (Windows NT 10.0; Win64; x64) AppleWebKit/537.36 (KHTML, like Gecko) Chrome/126.0.0.0 Safari/537.36 Edg/126.0.0.0" etag="Y1cvLzVxsjWRhttbGbHB" version="24.5.5" type="github">
  <diagram name="Page-1" id="r1415eN0G1C_CQltox_A">
    <mxGraphModel dx="1244" dy="543" grid="1" gridSize="10" guides="1" tooltips="1" connect="1" arrows="1" fold="1" page="1" pageScale="1" pageWidth="850" pageHeight="1100" math="0" shadow="0">
      <root>
        <mxCell id="0" />
        <mxCell id="1" parent="0" />
        <mxCell id="ph5oyXjZ7SMRdZd0G6kK-6" value="" style="rounded=0;whiteSpace=wrap;html=1;fillColor=#FBE0D5;" vertex="1" parent="1">
          <mxGeometry x="540" y="400" width="90" height="40" as="geometry" />
        </mxCell>
        <mxCell id="ph5oyXjZ7SMRdZd0G6kK-8" value="" style="shape=image;verticalLabelPosition=bottom;labelBackgroundColor=default;verticalAlign=top;aspect=fixed;imageAspect=0;image=data:image/png,iVBORw0KGgoAAAANSUhEUgAAAL0AAABqCAYAAADp7FCnAAAAAXNSR0IArs4c6QAAAARnQU1BAACxjwv8YQUAAAAJcEhZcwAADsMAAA7DAcdvqGQAACP/SURBVHhe7Z3pd1VXmt5f0Aga0YAEkgAJEIjZDMbGxgOu0d1V1V2pVHdnpdfqtbKS1Rk+5Fs+Za38G5lWOlN34lSVXa7BI8bYDMbMMwghAQIJEBISg2aJPL/33ANCaL6Si7L2Yx/u1T3n7LP3u5933PtKcx4JFhAwizA38RoQMGsQSB8w6xBIHzDrEEgfMOsQSB8w6xBIHzDrEEgfMOsQ6vTfBB4NmA32680cmZkUs4Eevabpx1Qd+izgG0Ug/Uzi0aAI3mvW+8CsT0dKpllGjtn9RrP0XL3XwWdzRf6AbwyB9DMFCN/30OxBs9mdc2bdbWZ5S80KV5ld/IVZZoFZQbVZ/vLo/Rx5gIBvBIH0042hZG+7ZHb7lFnTEbM0WfRlb5otec1s37+X9e8U4ZeZlW4xK1pvllMuy58vy5+RaChgphBIP10YVNze32XWJYvefsWs5XRE+NtnRP46WXURfM1fmC3/gdnHf6tr6hXiZEWWf+Fms+J1Zgtk+bPLpCAKewh5Qrw/IwjVm2QRx+3ddyNyN+43u/Cu2dn/Z3bpd2bNh80etkTXOETkORI7cf5dXX/tM7Pad3Strr/6kZTlpFnnTSmQvIUnvwHTjUD6ZOChjKx7xzWzK3vNzoi8x/8uIn3zMZH9lq4RceeM4EzdiKMwCnM6Lkfkv/gPZuf/u1nD+8oD5CV6WqNnBEwrAumnAiJCLHWbyNogsp+WlT6jo+5Ds5snFM8nLDWEt/GiR50fpMLTHpG/6Uuzy7+U5f+/UiR5ijtH5UXkKbgmYFoQSD8ZuGWXZb53Q+SUJa/7xOzce7Lsv5GlVlhz56JCkztRHR4rPlFg9VGQvvtSmEaFOGq7UW03/Dqy+s1ShPbayPJ7yBPSsGQQSD8hiGQDfbK4HYrDlaRe3aeY/Vdmp2SNa2WNb4qk95tk3aUQkH3K+aeeA/l79ZyOSwmr/ws9Q2FPo7xIq0Kertt6TreuU+IcMCUE0o8HQhkqM/dE6gaR8Khi7kP/SRZe1r1ZoUynSEjoMScZsg+Dt6Nn9on89xv0HIVQl0T8C/9NIY9Cn/bzkWIE4k8JgfRjAYtKKFO32+zY/4qOi8TtsrhYdlZZZyzcoE0pksf7d9WPOrNb8jD1In2tyH9NoU/bySgkCuSfFALpRwNlxiZZ8vMfmJ1QknqW+FqWvkWxNbX4AUKMScTtU0Yi5OkXuR9eV4hz3Oy6FO+KwiuIf1Ne4IFCrn4pYKj0TAiB9KOh+axidhHr4H80O61ktVnW/cGtiOwzYtnHA+RXXtF/T/0g5Plc8f7fy+r/F3mALxRmNet8sPgTQSD9SMBiXjmgUEZhzU3Fzz3tibhdxJuuuD0ZQG7q+w8bRfhD8kifKtyqj/oYMC4C6Z9Bwor3yKJ2i+wsPkGysXZrcCo+pgMTaQvFhORYfmL+Afo5XR34diOQfkSIPE50YuTxiCTTz954NoqlsEc+GZGqLXZb0hZtmt6P9Hi8jXsc+qk+eljDheP1NQAE0k8ZEDTVLDXLLHuRWY6OzHxJlC3CzsjJA4Vhf/28hWbz1V4GW47TdSJM03QiSHMyiI3pIwgvSwzZK1812/FvzTb8E7NFL0SknSpoM6PIrOK7Zmv/hVn1X0U7L1Pm6WQSyhTwFALpJwMscaoImFNqVvW62Qv/1Gwr5HzbrHClWXo2F0XXThVsKc4sNCt50WzlX5qt/1d61k/NCtapfXkSvAtKFyKZKSOQfkJIkD1bZC9db7bqByLjz2WNfyZC7pI1rhIhc6LrpoONEH9+iVnRZrOlPxb5ZfGX/UTPfkUKV2mWlqdrCHsSChYUYFIIpB8TIhUJJRY8r0Jhx3aFMSL6S/9GpP/HZosVzvA9V8dEkt6JQG3ESTTPzlpsVqZwZ9XfREf598zyV+u5xTovRfTEmXsC8yeKQPqREPMnVfF5jki3ZKvZFoUyOxRqbNLrwhqRTpZ92r/ZRBmyz6ynI/pSim9zgPyK57PKlTO8aVbzL83W/K36JG+Tv0p9lNWfLg8zSxBIPxzOHf0zn4Ryi9lGxdPbFbevVXhRJsuevVDhRWxhpxlYeDaZ3TkebS1u+iLacNZ7LzqfLoLnKpSC/FVKnJdLAfEChDyp8kbh64UTQiD9cMS8KVXiWPNDkf4fKVEVsUrWSBGUYHpJcoYA6fnyyd3aiPT17+r1IynBCbOHN3SuU89XLJ+1xKxYoVbFn5hVSilLXlXf5JFIcgPGRSD9SMBiVu6Qdf+RXpU8zi+QpL4hQrGNmW0PLbL2V943u8jXB0X+W1+Zf8HE99Ir5GF9ILdaMf7bsvZSzpzlkUIEjItA+mcgwrMqSoLKbyv4QwBvw/58the0nZXF/5VZ3TsKdz5XrM/3blmB5RpdiDIS9rA+MBMh17cQQUqjgTDmD0UiD7GUV0Bu9tTw2xH4JtW9+sgLxKR3JJQ0EH7CCJJ67iHyU9HhyyIktL6PP1RqkkEg/fOKobz2cCd6G5A8AumfR8SEf8qg88PQI2CqCKR/rqDpSElXEp0fJadsfXiK54Hw04FA+ucJJKOp86MFqKKNZgtqzDKLNEuJfTbE8oHzSSOQ/nkCVZjU3IjwlT/W8ROz4s1m80pCSXIaEaT4XEHWPN5aDNkr/8ys5p+Zrfi5ft6iz4sjxQhZbVIIpH/uAPHZ2am4PrfSrOSlJ1a/dEf0raqZ3AoxCxBI/7wCYqdlm2WVKdx5wWzRzkSog7UPe2ySQSD9cw1ZfcKZtByRvTQ6fDdlmLZkEKT3xwL22UD2QPikESQYMOsQSB8w6xBIHzDrEEgfMOsQSP9cIuw1mEkE0icLFkf9C9kSpVdW9J5fxjQVxBUan5YpthEwLgLppwv88lb2x/BrQ3zFdLKkRWloY160uzIsQM0YAumThsgNyQtWmC152aziJfM/ee+LSBPYLuBege3EhWqjxqz8tWjrwbyi6HzAtCOQflog4uaWifQ7zdb/lVnNT0Xe7fpsySjkT8TsczOizWUFq82Wftes+udmK35mVrhWehD/5rSA6cacR0LifUCy4I+u8dvJ+HP5TYejP7XZcjb6i+IFlWZrROqq75vt/te65lIUxiyQhyjZZFa6zaxofaQo/rvpQ0w/Uwiknyl0tpq1nje7vt/8T+inK9avkjVf+qbZ3n8X/aWTguro50UKi/iFreQDATOOQPqZAlafvy7e2SJrf8asu80sT1acUKb2F4rZC6LfPZ8vS88viMW6h3013wgC6WcUEu2AyA/hex9Elpzvv967IqLnKJ5fEL0GfKMIpP/GIDEPlbTX9gP+EAikD5h1CEFkwKxDIH3ArEMgfcCsQyB9wKxDIH3ArEMgfcCsQyB9wKxDIH3ArEMgfcCsQyB9wKxDIH3ArEMgfcCsw7gbzvr6+62ru8e6urptYGDQpvyX7ebMsZSUFMvISLfs+fP0fq4+CjsNJwOmamBw0B487LSenj7Nx8Ck5mMu8k+X/LPm2aDa6ezutodqiybS9fn8eZk2f36mzZ2ruUnc823EmKQfHHxkbXc77FL9NbtYd8WFzWcjYaiQRmswLzfbli5ZbC+sW+WCRwkCJg6MDnNw/PRFu3a92TruPXBFmAiwL1nz51vZooX2wobV1iNDdvlKo529eNn6+gZsUWmxVS9faqtWLLVMGSaI/23FmKRHyAh374GjtmffYbvT2m79/bIuMPzxXWPQfZi5WLSwyLZtXmc//dNdVliQb+lp4ddcTAZ9ff3Wojl493e77cjxc9Z8687TpB8m78fQJXPmzrGCBXm2Yc1K+9mP3rL7DzrtwOGT9uHuA/IavbZmVZW9/soWe/PVbZadPd9Sv8UGaWx1lhAR6SP9h4UffDToB4LmGNQxMDjgIVBff5+/9svl4jrjax5f6/erNY6AJCCZyxj1DyDz6CDkQbaPJOPhcnfZcyTO6Z/EnEaevF9tcb+3wTX+jG83xg5vdMrDm8tXFd5cdesAofGVGBUsz+07bXbx0lV72NnpgissyLM11VWWl5fj1uJx43qTl5tlyxTebF6/2rJCeDNpRJb+rv3yN7vt62NnrPlmi8tweWWFLS4psuycrDHzJHIpD2/Wr7Lm23fsy6+O2wef7ndLv1aW/g1Z+Td3brOcb7mlH5P0nOrp7bN7ih2JH7EqQy/vlrAuXLpiv/90n925c1fnB2xFZbn9+Aevu3DTFRtiWWKkp6XJdc6zgvw8n5zIAkVegRgyhUPCJskdCVwbXR/9zD1z5bYBHobEbnAgsla04cfclMfXjASeHd0bt/3I+za0LxNJuLmXNugDyg98TLofAtHGSO3wPO6L5co1c3XPo0R79I3PaAN5tba1PyZ9k0hPYeCtnS/ahrUrrWRhofd7ROjRaampnqzmyyBdvnLdvjhwzD7YnSD96uX2xitbRyW995M+aY55dTnpP/rKtcPlxHmOxx5GYB48SR4mh7htPBWI2xp+nctYR2xJR2tvPIxbvRkLDzu77eiJc/Z3/+c31tR823pliTasWWH//K//3KpkfeZlZiSujBC5037r7u61B/IaD7u6XHEGNbnp6WlKtDI92eI1TQoSDShxs0ClAW/Dc+bqxHxZrnnzMpxo9+4/UJLX5RPIiHg2sWl21nxNdMYzwvG+SIm7e3rsvtplLNxLWygK9+CNsvSMTLUVE3co4knFGHR2dauNLuvUgaEA5CyQLDs7y/uD0jOhMbifPtzteGC9fs8jHzf39PZKRhrPA3nQ1JRUJyqf33/w8CnSz9NnP//J9+zV7RttSfkiS00d30LjMc7XNniuNh7pIceA+tilaxgbiXRXV48rJAqWkZluOZLxYznp+ciJ892MQfPV19fnn5EgMydpqcztE1nSHrKjSsgTGSvjGqp4tNejuWqX8Y2fncmz6auUeTLET/kPQuL9pNErQdwQ2U+eveSTgRYuLFpgm+Q+C5U0pQ1JVJngXg2+XRPceOOmnbtYb6fO1drpc5fs/KV6fXbb2trv+WQzCJQgFiBAy6833/L7Ll6+5klcbAVbWtrs9PnL6gft1XkodrOl1SdpjoQDWWgL4segL3fb71vj9Zt2nr5oDBznLtTLCt7wsA3S0W/KfFjJoYQFEB7C3JH1bbh6w87V1tvJM9GYLqmPjLO17Z5POuVCSI9MnozpkT/j9Pk6r5Ahy457932sjU237cyFy3b81AU3KBAAYgEIy7UYANpbs6rSlpSVOlmGjnE00D5FiauNzVbX0OiKvrCowEPPyqVlGm9kcCA81+Lpb6g/yBUZnTwjOdVedm9xS2ESY8ALoeQQm/Gh+Hglqn6M7eatVpcVY6D9obK8pbm6VN8oHjRIZrc0X/PcoCEvwBzQXouiCea44doND/MoquTmZjtfJjLuGMmRXh3B2gwlfUlxgW3esPop0tNp6vxXJOSjJ8/b5/uP2DG91tZds2tNNxWb3rHrTbfsmgjI692Oe5ahAWM5CJGw6ggfMu3+8ms7dPSMBt4krb/vguDnoyfP+aRcE9EgyXVNEn3r6Ljv7SBsD7cECF8vYh85fta+OHjcvtbrZU3+DV1/W+1xH4S40thkTVIuJgtLzYGAAQp3V0pap8k6cOikV0JOnL7okwch6QMT2HCNdigv3hcZTJYpyxUaYkA2cqaPPjtoh9WHiwoVr+u+W1JilIcDUmJdqbwUFVLxSnuG9MTjWPnpJD3GoluWl9j/62Nnbf+hE/bV0dN2VgYCZW661SLDE8up2W7elpHRHGNgCLkIg5pF9CMnztpXR075czrlTRcWL7DchAwA3ECx9399wg4ePqWx1VtuznznD+OJr2nXPBJK//ajvW742u7ek4JleJ8zZZQmQ/qJXzlF0GGU43pzix0/fUEDO+mW7ZYsKZWfLGl1bk62dxqyQ5qvjpyWsM7Z1evN7vpoAzyUUCHlDSlGo5TlnCwhynNV5OyRh0CQWBpPwNs73PryrFNn9TwRCfLi2m8nSAXRzlyoc6tO/F4kQVNWLcjPdcVAcbhu31cnvB2ejXWmP/fuPZTiXBchTjsZapXst4rA2HCIjRuHOO2MSecO6RqfVFkzxuTt6D9q5FhEFB+lR4lQHl4hZm9vvyzak3xjdHBurPOTA14cIh89fs77feLMRXnFW5EBELFZc4Hg5HEoIAaJecMAkWD39ve5dwUYBzdqUpY7stCEPYyHA8Vq1LkrMmJcg6GAAxizeLxcR5iEMcLY4eUJhzAihIOUYyeDGSc9Lgj3d0GTfUwafUHuDqtfXLhAceQKe2nrentF8SgVhXIlvxABy3FMCkKI0CHSMPhYAAyUf8gDsPQchFQb11bbS1vW29ZNa32RJT83xwl+UwLi2bGgiAtpn0mqVftYy6KC6P7XdmyxXa+9aDv1unplpceqTBhhC9czKbRJTgEhzioUOiKlwyPg5aigbFxXbTu2bfSDMK9CYQeA0Cjo1yLFbU08SjUUjAsj0Kk8h2diwcsWFduqlUutalm5+pjvYdZwIBfPSzQOQkcs4kjH/fsPPZcaW3ES0CUdypHwfhAey9quUJD4mVBq+9Z1yiE22XbJe+2q5VKAHOVUD90SH5RVr62/qvyryxcgF8rzk9NgiIgGWjU2iA6R4QYxOkaI+zEEACXCEOFNATE851GEHo2BUJP5LRKHMHKjJu+jYEbDGzS9S528KTf46d5D7r5JXEtEUggK2V/cvM4XRqj2zFUC+UDtMOm8Yi1LFxa6ghAOEENCYEICfqYKVFNdZd/ftcO2vrDW1tassGUViy1PnoNqUwcTreeRNJWXlei5BT7pR46fF2Evu4Ul7GHy3ty51ftSU11pVXLxCBPrgvC5h7HQjwq1Q95x+vwlT+JRHPqyXMR8UX14XQqzZWONyLrMlRhryHNw/fSJyStfVOKlXZ5xT+MkNIutOt6KMVONoR0Wk6qrlnr4QvwKUYaGN3iTfH2O1kDsW1JGFP3po9WfC99zc7J8PGOFN4y14WqThyaEo4RXCxRqrKtZbt9742XbLjmtk6wZc6nmu0tKh5JAYAwcYQeEJCTDq12VwjOnPB9+IJcc9YMk/pr6QPgEjzAEKP+jR4MuoxWVSzzUwshg4U8pB6QtxrBy+RLvQ0lxoc/vZDCjlj5K1Do9TMFKMvF0eHnVElnB1bZCrxBpgcKJZUvKRLhlEmSFWwgGigUgpuZ9bAUcegvRShOWlcrD4tJib2uRPltRWeHk5FlYlHjvEEo6oFChu6fbBc7kp2iCUS5PsERCSMfPNbL0r8ia7dr5ohN507pVTkbaw3Li6gmZ+LlgQa6tVt/XrVnhpGGyCxfk+5he2FBj60VgjADP494zUhgUd2g0godLVXKH1dwgr7PjRXkLHWwZqJF1LS0ptPnKKWK4w9PBOGqVy+zdd8R+89GX9r5i3vj49YfRwfs9yqOwwFhP+jEaOEfsTYhCqNEp0hJ6Vi4rs21SaowMCpKfl+uvqyQnjAYKQL4ByZlr4n286gLJhnAR2RIasaKMojMXGKSrCnnw1ngCjAB7gKik4UlvKp+gq3hXciKMB0pBRa5I8i1Uu/Bgsphh0kd7RRDeXU02AmdgeSJjenqqhNDnn5OUPFDowYgoQSI8hI+lZqBOUG/xyQAZLKSGiF7iEiGwCrwSb5InIGiAJaMNwoe5KXOc4Gm6FiuJ8ImnqdiQA2BxqFaw8Wq1rPUbr0ZL8y9uXitrW+rPpV9UDyiT4loJPSoWl0rhih8nqhyEA4vUv+oVy6xA15A3kHtQfSDWj923QwPkPAq/VFad9rBiEIbxMC7OPwWJw+Wk/jaLJCSYhFHxQWWKbSTE0iSkE9mrw3nmDE+AYiI3nl2+uMSWV5a7rDNkyQm/KBCwCIlnLFd/GW+/Ynmseuzd6DteDXlS2uXzKNTq8RDouriBF+IZGLEFUiYMHB6Wc3CI8K1DoRv9Rwa0WaA2meMpcH5mSU+4g9VAaxkkassgiK2pnhAnk7lznNBBDIkCcA0s6OrulkA6RY4RkjiNliQmJnYMSIllwkVHsV6UD9AmTWBJ3CsoxIJglMJILkmw9x06oeT2nCzxZbdWCHRZxSKPY7FoKBhJE6vPuHMsVaomnzALy54lCzTU8vCeOnaFCANZIAr9ICFGYbBgQ0G/UVzCs4jk408Pz2A9AU9C/EwIFx/+sxSHkILzrMjOGec3IyNlSE//sLj0FznhRQs0RkKJIUN0GWP1iwvznYzMOdYew4CXwDAV6hzGgHm4297hlp5nYL3xKMzzgvwcW1lVYWWLiz1mb23t8FAGGRHGYRwJnTiHIeAgoR4q74liRknPIInTiPfRXgSCxkIqFkXe/f0ee/d3iUPvP/38kMdtaD6xK/VttDxSgpEAoRNvnwEnnpzkHfLJkqBWy/ISKy8VoVEOco7Diis/3nNQIcJee099eV9hwWdfHpZi1nmsyoPIOUigSQjxEPSL+7OyqStnWnqinDkUkAIy8FwmjDAGpYdQw5NZB530I/HzKPDR6R9KqOQhu17bZn/29hv20x/t8g19Q48//5Nd9h0l6Hiu1NRxVjDVqIeDUuhoBd48L+HAA490L8rJ+Bkjc97nC5A9Pn941WJ5ORJPFv08r9FBpYvwleSUChDKSYy+UiEv93AdhocFzLa2DveMGKiMjDQv3eaL9Mh+KphR0gOEQFgRTZOsv5IUJjte3WPF0Q+9JyECJDnE+cS30WrqOAyYBBAUrpEk8S0R4a2d26QA1Z54RVa4zRdTqDR9cfCYK8JHuw94fRrBA4jLuCJFYstC5FVGLp0llspjC6mbYgPwVJ7yFEb7/Fnw3NKFRa7I5DfkHlSNOKiI+aHP8FRsU2DNYzz42NQ/CA94ho9vlFvZjoAcCBf5ift8bPrfKy3ycpFlznDrzyJkU7NyBpEaj5kpIhcXL/CwzitvedniSK/PBdeRH6AENIhXK5YXy5XnmCpmnPQIY27CpTL5lAErlyy2TUrQtr2w5qmDuJkS5qsvbfLkkfcIgVLddBE/CiHSPUbduHaV7Xx5s1duXtuxWc9f70lxVEma63E71SJqz8dOnfdJipbAo9VdJpv9IuQMkBiyDIdbPrloPBdEgDhYW9+vMg1jQr7zM6mb53iIxZbtZ488r/BMNBxwkst6eyijnxnbaOMDfI5ciP+5nmFxP0UC5ES4RrJPmMQ1JLOUjck78Hr0fWFhgYecVJCw5NxHqMv6B9cRLnk8n5PjoRbFhqliRkmPgJlcEh7eI0xcPVaJTVJvf/dVe/s7zx4/5FXnfCOVwhDuRwhuOpIApMNFsteG8ASXjJBf3rbBvvvGS3r2K/bDt17x/Sc8F+t0/0GXL34R5rCAgpeKE1X6BOGpDLk714QOB96D8I6QAeJjCeNwgZxkWiCSId9xj8TlY4HrKDaQK3n4oJsoO0fjG5J4JxARXjJQXE4sr9v9Pqx3nG9BUCpazD243dIqWd5wI0JFp7hggROdRLhU+QeeC/mQV5y7eNnXQZAhxgoFRoE4P1XMKOlxpWwKoqMkfOzFxyJgCkoWFsjil/m22OFHFZ8vK3dCkoylSYgTmbCxwGRC9Ba5TFZZWXRhsYi4kU1u1I4pO27duMZDnj/9/mu2We8RLmTmPmrghGV8RlLIXhPKqVQrKEUS6w8HFRpKb7hnr0Nr7IRuJHgkrdOH5AzCUBBCUBaE/Fh7CNfWzgLXs9+cg/QoNPuY2u+z1UJzLnJmZ2VJRpE1RlaQnnGj6IQtlLGRJ86Dqg3hJUUGvBFemOup/rAmwXoClR7kjkIgu2S+gDSjpMfFUVYinKFMCaJl+WtWV3/diULog9vycpwE0C4CsSACKVmMQqCjudXJgMnAIrUqKTp87Ix9/PlX9rtP9tsXB4678Em68ErEnbjbxaWaCIUGsXCpIEWWbo5bLBIvXiE15ULKkFQiSLzj/mLFqOWzhYESIM8nGVylkA0CRN7r+QJyYs6owTP+lJRU/y5t/ZVGD/XwlDHxqa2j9Cw6Nly97ot5VKggLMYq3jsDmQmvqCBBXNqgEsO9eIFFknVBPt+/IKSa66vY5B88xVeT5ZkJr1DGssXRgh/9nCpm1tJrAFiMpRWL/eA99Xg0l62xfOXtQm2915OvXL1hZ0QOyL7ny699BffYyQvWdDPaTZk08XU7Ox2JMyk1slJZ13DNTiX2jPjOTH1GHMlBHIkb7pEySMJu9RA2u/+oRFCzp/QJibHiLMEfVdzPLkTCoHr2/Sgkou3zFxt8XxFuHzJRpaDMmbT7mgHAJcLJxYuKozkTKZE95UP2KrGHqE6JPvV/9gexR4rPmFOUmsrLkopFLhtieIDxY+7JL3gFeE+eRVhDuZPPYyOAElAeRuYoCNdGBjTL26V/yWB6SC9CRZyMKhrRP5HVoN68uKTY1tes9AUXLHtLW7sLcPcXh+yTvV/5N3j27j9qH+05aB9+dsAOiignFIJg6VnMICSKOc+rK0D0P5/4v88gcT6+nqVtrDYWllJlXl62DWqS2A25Z/9h23vwqBMUL4NCfr7viFto4lTuo9bNqijWHeETmlFe43PidvqKwn4iZd178JjvJGVsKDCEwOoz6SzlU2JkS0HUz0RHect/ifcTQXSpD9DfTR6JFiIhPf4ZgjFn7D+iosKmQBaqqGj99uMvbI9kw+5UZPT7T/b52galx3gRi2/OUQzA6gN4gDJg6anM4NV5JnkRYSVzQvwfW282/hHG8DmypWvE8+RYxPyET8kgadIjJv/urDpHDds76f9FwLqxeLF9yzrbxqpmRal/KYHddhD7g08P2N//8gN759efuHVncxOZOi5ySXmJEw3hIQ8nL8/RQRk0/qbN04iejuuNro2+s+uVE8WnCO7lrRtt/eoVXvpihZRFMcqS/+Od39p//p+/sv/6v99z8rL/BDBZlABJwEl+6U+F+sZnWzfVuOsmrKGdvSL7O+99bL94/1MnxeUGuX15t5zsebZpbbX9YNcrXn0gTwFRX6MxIT/6rI+iYxQwluiIciQfqz4f45YRgHziRbuEvHTEjSB/KlmsRhNSQFQMEAuJ732wx/7hVx/au7//zDfQ8X0CrDS/UYEqGKVTxjg0BCFWR+mRfzx29ujgTXJzFNoMWePAkhMeYdW9tKsxzsvM9LiffsXKNFUkteGMUhxlPd+0pM655kpA1Iq9cxoIAycZwlUR47GjkbgZ347ACV0YFOBzkprNG1b5nhdqzPwcx9Vk+4QdJIy4TpLe6uVLPGSIARlwiWzI8l15IjUxKr/aYmn5YiuU4FhEYU+IL6nLauA+cc2MhziTKotbd7nY9Wuq7Tuvv6SktsYnlXAGQALCHbYXRKutKf5s2og8U7Svh2V6lIXvn+7YvtGqlpZ7cg9JkBkluwu1V3yxitVbPAd7bXiFKEOBcjB2Kh8kz8guRwnjOikwSkhpMA4RxgJej/v5og27T0kuF5cu9H1DeEESbBbiMtKj+ByiMlYUA3lGRiSaM76jwJxv2bTG3tgRbdojF4gM1RPS8x7ZsCjFtmzkVyZ5bt+23vdJ8W25uO9ci2ck7uf7BXgJNhKul5es1jymwCu/cmpI6uuCMbnY/+27LDUJC5XgYf2oGQ/XSKonLCcTDxIjtkphmHQmj9o3iQoxHsv2WACWpiElQOAkwHiCO213XWiEGKwyssksBkQi+b2suJNSF4lregbJ4zIXHO0jVOJ6lCLqS7OTgPuYTIp7WHSsVbmSquUiQ/6QvsTgWtphZbGh8YbdaGrxMABiABI4iIgLr6osk2suFJHZCuCnXV4dIgChXrSbc9BdOhY2LtsNBcqEvPgeAWRg5RpPul45AmRF+SZCevrN867Ik9VKTnyFE8PBHppKKWVE+qgdFJmtAxgbauu+baAn+sVfzAHGDPkzXySgxOdDyR6D+WPPDfkAOyapzDDW2CvQztD7SGC5Ds/C58T4bCRk/89ExjgWkiI9dxJm+IYwCYf/6BDWcKyO8UAUgH050Y7HQc/cM2XpWWjBY4wkOCxwtHFMxNR5qi1M+vBnIWAIxbd33CJxra7j+meu1XmUFzLxitehbVaCIT4ueCJAcfkFSqw4kvzSeywoxCXW9YWeEcbE89070E+BBav4628jXc90cT33MU6AcYGAE1ltjcH9Lk/1m4l88gXvZ78LHIPnUqFh5ZywEW8AWUl2Y68+Fug7ysJzeY9M6PtIXGFoyIRt3IB+Rf1LjvAgKdLHiFp40sx4gwfRLcSRj3+K7tMx1t3PXD8Ghg5trGvj6569HqJGP08E3B91L9FOYizj9tP/iZ89sWdOdGzj4Uk7E3/u8GdP9vnR7fqHe/2T0RE/K5kxDse0kD4g4I8JyfuKgIA/MgTSB8w6BNIHzDKY/X+ncnBexjORAAAAAABJRU5ErkJggg==;" vertex="1" parent="1">
          <mxGeometry x="270" y="240" width="89.15" height="50" as="geometry" />
        </mxCell>
        <mxCell id="ph5oyXjZ7SMRdZd0G6kK-9" value="" style="group;fillColor=#FFFFFF;" vertex="1" connectable="0" parent="1">
          <mxGeometry x="258" y="300" width="592" height="60" as="geometry" />
        </mxCell>
        <mxCell id="ph5oyXjZ7SMRdZd0G6kK-1" value="" style="shape=step;perimeter=stepPerimeter;whiteSpace=wrap;html=1;fixedSize=1;fillColor=#EE9A6D;" vertex="1" parent="ph5oyXjZ7SMRdZd0G6kK-9">
          <mxGeometry x="116.28571428571429" width="126.85714285714286" height="60" as="geometry" />
        </mxCell>
        <mxCell id="ph5oyXjZ7SMRdZd0G6kK-2" value="" style="shape=step;perimeter=stepPerimeter;whiteSpace=wrap;html=1;fixedSize=1;fillColor=#EE9A6D;" vertex="1" parent="ph5oyXjZ7SMRdZd0G6kK-9">
          <mxGeometry x="232.57142857142858" width="126.85714285714286" height="60" as="geometry" />
        </mxCell>
        <mxCell id="ph5oyXjZ7SMRdZd0G6kK-3" value="" style="shape=step;perimeter=stepPerimeter;whiteSpace=wrap;html=1;fixedSize=1;fillColor=#EE9A6D;" vertex="1" parent="ph5oyXjZ7SMRdZd0G6kK-9">
          <mxGeometry x="348.85714285714283" width="126.85714285714286" height="60" as="geometry" />
        </mxCell>
        <mxCell id="ph5oyXjZ7SMRdZd0G6kK-4" value="" style="shape=step;perimeter=stepPerimeter;whiteSpace=wrap;html=1;fixedSize=1;fillColor=#EE9A6D;" vertex="1" parent="ph5oyXjZ7SMRdZd0G6kK-9">
          <mxGeometry width="126.85714285714286" height="60" as="geometry" />
        </mxCell>
        <mxCell id="ph5oyXjZ7SMRdZd0G6kK-5" value="" style="shape=step;perimeter=stepPerimeter;whiteSpace=wrap;html=1;fixedSize=1;fillColor=#EE9A6D;" vertex="1" parent="ph5oyXjZ7SMRdZd0G6kK-9">
          <mxGeometry x="465.14285714285717" width="126.85714285714286" height="60" as="geometry" />
        </mxCell>
        <mxCell id="ph5oyXjZ7SMRdZd0G6kK-11" value="&lt;div style=&quot;text-align: justify;&quot;&gt;&lt;span style=&quot;font-size: 14px; background-color: initial;&quot;&gt;Huấn luyện mô hình&lt;/span&gt;&lt;/div&gt;" style="text;html=1;align=center;verticalAlign=middle;whiteSpace=wrap;rounded=0;fillColor=#EE9A6D;" vertex="1" parent="ph5oyXjZ7SMRdZd0G6kK-9">
          <mxGeometry x="24.28" y="15" width="78.29" height="30" as="geometry" />
        </mxCell>
        <mxCell id="ph5oyXjZ7SMRdZd0G6kK-20" value="&lt;div style=&quot;text-align: justify;&quot;&gt;&lt;span style=&quot;font-size: 14px; background-color: initial;&quot;&gt;Chuyển đổi định dạng&lt;/span&gt;&lt;/div&gt;" style="text;html=1;align=center;verticalAlign=middle;whiteSpace=wrap;rounded=0;fillColor=#EE9A6D;" vertex="1" parent="ph5oyXjZ7SMRdZd0G6kK-9">
          <mxGeometry x="140.57" y="15" width="78.29" height="30" as="geometry" />
        </mxCell>
        <mxCell id="ph5oyXjZ7SMRdZd0G6kK-21" value="&lt;div style=&quot;text-align: justify;&quot;&gt;&lt;span style=&quot;font-size: 14px;&quot;&gt;Tối ưu hóa mô hình&amp;nbsp;&lt;/span&gt;&lt;/div&gt;" style="text;html=1;align=center;verticalAlign=middle;whiteSpace=wrap;rounded=0;fillColor=#EE9A6D;" vertex="1" parent="ph5oyXjZ7SMRdZd0G6kK-9">
          <mxGeometry x="256.86" y="15" width="78.29" height="30" as="geometry" />
        </mxCell>
        <mxCell id="ph5oyXjZ7SMRdZd0G6kK-22" value="&lt;div style=&quot;text-align: justify;&quot;&gt;&lt;span style=&quot;font-size: 14px;&quot;&gt;Triển khai trên thiết bị&lt;/span&gt;&lt;/div&gt;" style="text;html=1;align=center;verticalAlign=middle;whiteSpace=wrap;rounded=0;fillColor=#EE9A6D;" vertex="1" parent="ph5oyXjZ7SMRdZd0G6kK-9">
          <mxGeometry x="373.14" y="15" width="76.86" height="30" as="geometry" />
        </mxCell>
        <mxCell id="ph5oyXjZ7SMRdZd0G6kK-23" value="&lt;div style=&quot;text-align: justify;&quot;&gt;&lt;span style=&quot;font-size: 14px; background-color: initial;&quot;&gt;Xây dựng giao diện trên thiết bị&lt;/span&gt;&lt;/div&gt;" style="text;html=1;align=center;verticalAlign=middle;whiteSpace=wrap;rounded=0;fillColor=#EE9A6D;" vertex="1" parent="ph5oyXjZ7SMRdZd0G6kK-9">
          <mxGeometry x="489.43" y="15" width="80.57" height="30" as="geometry" />
        </mxCell>
        <mxCell id="ph5oyXjZ7SMRdZd0G6kK-10" value="" style="shape=image;verticalLabelPosition=bottom;labelBackgroundColor=default;verticalAlign=top;aspect=fixed;imageAspect=0;image=data:image/png,iVBORw0KGgoAAAANSUhEUgAAAlUAAABoCAYAAADYfQXoAAAAAXNSR0IArs4c6QAAAARnQU1BAACxjwv8YQUAAAAJcEhZcwAADsMAAA7DAcdvqGQAAHN8SURBVHhe7b1ndF1Hdue7b0AgQAAkCOaccxApiaIiJVFZrZY6uLvdbrttj/08Tu/Z4+VZa9Z7s+bTzIf5MLPWOMy8Z7fd9nSwW53UyjlLVKBESQxizhQzCQIgwg1v/3bdIg4OL4CLRIJg/cXSvbjnnMqn9r/23lWVyCskICAgICAgICBgQEgWPgMCAgICAgICAgaAQKoCAgICAgICAgYBgVQFBAQEBAQEBAwCAqkKCAgICAgICBgEBFIVEBAQEBAQEDAICKQqICAgICAgIGAQEEhVQEBAQEBAQMAgIJCqgICAgICAgIBBQCBVAQEBAQEBAQGDgECqAgICAgICAgIGAYFUBQQEBAQEBAQMAq69s/+yF0TyOaWTKQ2VhR8DAgICAgICAgaGa4NU5bMiuTaRjkaR1iP6vV0kVS1SOVkkPVrJVbnWRFDaBQQEBAQEBPQfI5xUadFyGZFsk5Kp4yJNu0XOb9W/W0TKxorULROpmiVSPk7JVZXWRkqfSbhHAwICAgICAgL6gBFMqiBUHSIXDimR2iV5yFTjFv0bTVWb01BBqOqWSqJmsUj1HJHKiQWNVSBWAQEBAQEBAX3DCCRVWpxMs0jbScm37FdCtU2kaZdIy0H97YQSqla9J6clTxdMgJOUUCm5Gj1fpGahJEZNEykfK5Ks0PsCuQoICAgICAgoDSOHVOF8bn5TZ0QuHJQ8RKpxu5Kpfc70l2lymqs4T8JZvXyM86+qnitSq8TKtFb4W9XpdSVfgVwFBAQEBAQE9IIRQKow8+E35bRT+EzlGz/Tzx1KqA45/6m8XjcUI0cUX3/HWb2s1mmtapZIonap016VKeFKKfEKZsGAgICAgICAHnD1k6psq0jrUZGmnSLnNkueT/ymWOmXb9fQh+JBnFKjRMrrRUbNkETdEpG6FZ3O7ObIHhAQEBAQEBBwKa5OUmWmPiVT7acdmTr/uX2aD1XHWSVaF5z2qj9IJDSUi6SrRSrGm0kwUbPA/K2MXNkWDGXc6O4PCAgICAgICFBcZaRKs4rfFGTqwmFHqBq3iTTvk3zbMec3xZ5UgwJMgkqeMP9VTZWEObIvUZI12zm3p2v0lqC5CggICAgICHC4SkiVZhGyhKkP8tS4VeTsZsk3fqp/nyr4TUGmKMpgapA0Pq+5KquRxKjpImNWa1jpnNrL6vRaWkPYODQgICAgIOBax9VBqtgBvV3J0/ntkj/9vn2a3xSbekKmMAcONSBOiTK33QKrA+tWSqJ+rUjVNGcSDObAgICAgICAaxrDmFQVtFOs6MNfio07bfPOw27bBLRWl4NMxYFmChJVMUFk9FxzZE/ULlFyNdOtEgzkKiAgICAg4JrE8CRV7CeVOecI1Pltkj9X2CKBVX5cY/POgZAX/2i/S64P4k+VUnI1eo5I7VJJjFnhTILlDYFcBQQEBAQEXIMYRqQKzZQGc0Q/JdKkJOrkW5I/u0mk7bhIVn8XTHADJCu+uAONB3hNGftbKblKjL/T+VyNmqJZHaUhbBwaEBAQEBBwrWCYkCrIVMER/dzHIqffUTK1WdgZXbLten0QzHxwG5JpyUiejdWTSUmOhqS5ywMGBCpd4zYNHXuDC1XTC8QqOLIHBAQEBASMdFxBUqXJkjS7naOZat4vwk7oGvLN+9xvdk4frKefzKdApPLZnBIpDRc6JNvYIblzSnI6yiTVkJLU2KQkqhKSSA+EXfkq1DjStSKjpoqwt9WYVW4rBg5qTlXpZbZgGEg6AQEBAQEBAcMVV4BUwXJySpjaRTLnRVq/cP5SEKpzSqja9G9MgAMhU4BkKFpHVqPLGKHKtWg4n5XsybTkm8okWZuS9ASIVUoSNUquKpVcDYj3WKJOO8X+VqPnidQt17gXiVTNcLuyc9ZgMAsGBAQEBASMOFxmUqVJ2Tl9LSLtJ92mnWc2ipz9RKQFU1+rEg5MZQMwl1EaLVI+m5dch5KpZiVSze1GqvLZrOQ7kpI7VSb5U0qscglJViclNU6J1cSUJBs0jFJiVaaEZ0CcrkCu8NtiV/aaxZIYs0YJ1tLCxqG1WsRydz2Qq4CAgICAgBGBy0eq2B4BDZTfIuGcEqmzH7sVfbYTek+HHpcIuIySqXx7RnJopprbJN+qxCqTK5Ac/WhLOFJ1WklVVn/gn5KoZFVSkpArNFdjkpKoLpCrgYL9rdBOGblaoORqtX4ucibCNCbBoLUKCAgICAgYCRh6UgVZ4iw+jpZpOSRyfqvkOauvZZ8SqhMFU593RO8nuShopvCbgkzlW13IKbmSHEyrcJ9GfwmpKvyeSCmJqtBQmzQ/q1R9SpJ1BZMg/lb9Vp6ROM9z5E2dkqnpzt8K7RX7XLEFA/tesbHoYKxIDAgICAgICLgiGCJSBZEpaKY44Jjdz5v3KKH6XAlVYb8p007pfQMhEp5MZXJKljKmlTJSpWQqnyH9WPz6tZimyuBrQbkNWqvUGCVV45JGrFglaIQLchWJrnREqhitVSUHNc9WUrVEyVXhoGY0WSlNvH8JBAQEBBgY0js6dCzM5aS8vEyHQB27woQtYLgB+Z9l30kFsm+E9NHBJ1U4obNnAaTJ9pva5c7o47w+VvihtYqqjvoDfdyyzao+JVNm6mtBO6VkSn+zxioGTa5bUuXBo/ymBMr5W2nA1wqSpX9LWi+jtepn1l0CCs4TTCuRGnOjSMM6SdSvEimvLUQeEBAQ0DcwJkKk2tra5dy5RiVWHTJ+fINUVJRL0nxVAwKGAZDP8ISOdsk1n1WZp7K2tkEkmbLvVzsGkVQVKirbLNJ6zDRT+cZttiO6O1rmnF5XsjXQ5PR500y1ZyWHic+TKTRT1liF+4pB26tXUhWFjkOJcm3w0UlJjk1JarwzCSZHJc1a1y9iRR5zmCrJv9bX6CWSnHKXJGbcK4nRU13HKhGDzYeHAmGGHHC1Yzi8Z729R+Sxra1Nzpw5J/v3H5Jdu/YowcrLvffeKfX1Y0xjFTDcUUR+WbMPxzGUjPYjX7xLHW2SbzojuRMHJHt0jySqx0h6+e2SqBilUV795H8QSBUdQQlNRskUmqmW/WKO6Od3Ob8pfkM7xT0DAUSEoGTK/KUgUm2Y+vTvLHkooRjaB/pEqgC3pBPmW8UWDEn8rdBa1epvrBQs1SRIFnUWKfh9makSQtgmiTFLJDXrXknOfVgStX6z0J6Bar+5uVmOHj1ms1HXhKVk4nJB20mzVFU1SsaNGytjxtRJKlU6WQwIGA7g3WpsbJJjx47bd4fL/Z7llVAlZfToanuPxoypNYLlSRbvfktLi5w6dUYOHToqO3bsli1btsvBg4dl0qQJ8md/9m9l4sTxUllZYfcHDEOoXMh3tIo0n5V8y3mVlxka1l1Lp410JEaPFSm7gm2YQ+42S765UWV6wdpUWS2JKu2P5UqGUr3ILS1PXsmUQKZOHpLc4Z2S3b9FcueOq/xbJuX3/LbK2NEq/65pUqWPmWZKK5gDjvGbalIi1bRDK36v238qow3APYZ+DkY0RsRvynymICU4obOhZ1+yr1noM6ny0aO1glyNLpAqI1dJ+xttli3iKwaehwxiqkS7Zo70Wg4lhNLeIYmGZZKac7+kFnypJFJFcSFUBw4clldffdPU/Kj8h5NGiDYhTJ48Sa67brksXrxARo3iPMSAgKsH586dlz179snrr78jTU06aTSCc/neMze05W1CMnPmdFmyZIEsWrTAtE68862tbUr6ziuZOiK7du2V7dt3ytatOzTP+3WMaJGVK5fIf/kv/49MmTJRSVV4/4Yr8pl2yTeekvzBbZI7ulvyF5qMaFl/U9KSnL5IkjOXqqypVyF0Bcb5jMosJXzZI7skd/yAaZlAoq5BUpPmSHL8dEnUaN56srJoHEamDmw1MpWlrEd226X0qruk4it/pqSq5lomVfoIBxvnlFBBpnA+x8zXuFU7xGElWi16TUmPdYABdAKE80UypaFFOx+Eym+R0FdoVvpMqqIgSR6pcP5WyfrUxV3Zzd8qvnGo3u92c4flk3/tWEqq2JDUtFb5rCQnrOgjqcrrrPS0bNr0ifz3//7/mrYqqzOb4USqMDsQli1bJF/72pfk3nvXS11dbeFqQMDwB+/ZF18cl3feeV/++q+/JydPqtDT364EqYJE3XDDKrnvvrtkw4b1OkEZpYSq1d79bdt2yEcffSqffrpVdu/eJ8ePn5R2naxxz803Xy//+T//3zq5mRBI1TBGvq1F8sf2SmbT85Ld8pbkzh53pEo7QHLsRElft0FSNzygsmKmypfLTzry509L7uB26dD85Q59Ljn9GyTGaN7mr5H0orWSnLVM5WK1/ljk/dByQBQzn74mmc0vS3bPZslrGdFcoYEru/FBqXgMUjUyNFWp/6QofC8R+qZj6ms9pFM5rZxTb4mcfk8J1RanneJoGUaDgRAqGkHJCCa+XFO7NmKb28BTCZXbIsFGm76D7CiRyrdow13QkNcf+pJFfy+TiHZ9vEXJwwXNK6fpYIKED7E1A/0CYoFpEp8vytDUqh0LQljw/SogUT1RX5x5khy3UDtlnf7Qe6diFoqm6oUXXtNB9Lj9feFC67AJmCNaWi7I2LF1snTpQlmwYG4Y1AOuOqAFQlP10ktvKKk6bX26WH8funDB0mxvz5jD+dy5s+xdKitLy7FjJ+XDDzfLE088Kxs3fih79+43rXU269wsysvTMm3aFLn77tulpqZa0ulezDMBVw5ZNFUnJbd/q9PgnDshOYiWhkS6TJITZ0lyqsoHTICXefLM5D93dJdkPnpBMh+/LLkTh1SmnXXatKbTmkflAuRRCVaimk2ti2mrVN4ZqXpdsrs2KWc4ovLdmdPxo0pNnS/pxeu0rH5D7KsbfaSFWjlZJQYnla0eeFXyR18QOaWECrOfndXX1oUw9Bn6qO01pUQk26hE6uwFyfEJMVGCMiBCBfTZRKpMEqNGm1rVGtDi62OcZENJFI7muTNZyRzNSMf+jGT2ZSR7PKsvhQaI1LlWzb+WgU1I0bD1tDKxj2DWjAkgq3EykA6nQL586JciNCBgmMBpXd075j8vX+h8v8kHr5J/nZqamuTw4SPmQ4VGDfNkRidsaNKcXLr6hdM1Ayb3tGtex0vGTA1810Z3f1/JMTSjcuz0UZVtn6osO6ny+YJyAJXF8IBWJX56LXdsv94DUcoUHoqhUDbh2YxyBKxYIxh9I1VUDrbRw9sl+/nbkt2vrPPsQZG2xkJF9fNF1njNbwozX3O7ZNFMNSohgZiwkaffc2rA0DgqKpX5z5Tk7OWSHD9NyRV2XJ3F9afj0vfbdNBt1IFPyVTmoBKrwxpOaBmUDFo5MPmxb1apzvR9gnNYHc4hDO4BVzPowp19ufP75Q8ubQ8c55uaWkyb5herRK8HXIVwjewC42b0+5UCDurN5yR/5pgRqa75QmZfcNdxYIcM9opCefgYoeizpgo2mjl8SDq27ZTMrlOSO9nuzF+5ftSSPaJxKmnKX4CItEr2bIsjVGinoqayATeCIzXJilGSVkJVtvZhKVt5p6Qmz+1BbdkLyBNB4823KbE6o7PLLzKSPaFESgmVrU407ZTdPQTQdAedqA0cwzBLAQFXHS59t6N/dxKugIChhOtjGqyrRfqgfeX3QugVpdxz9aOPpKoAb/Y6lJH23R3ScaBDsqeykmvTWqaiqbsS6g+H81yzPnu2VTKnWyR7Tlkvq+P664jeE4iOOFMpSeD8N2+1pG9UYnXb16Vs1QZJTV0gCb9k1VYs9jH9QnnzGSU6rEpEMzVkcGTKm9ecqQ0TQanBmeZ6Q//ijgaXP6o9IGAkovMdGch70l3w8bpAWgEBlxOJsnJzSE9Omat/pOjwGpDPTn7gSpOsm2AO9YnetlW4RtAvUmX12qGDSUveyBQmL/MpOpiR7Gl9+Vv1Buq8G2JlZAqz2Dk0Uxckdx4nbiVTtiqOyIdy8NDZXUo7SvUYSU6aJan519vqClYgpFeud5qrUTV2X7/IFbf347G+gH1rWBFUW1tr+9a4/WvG9CHU6rOjzeG1p5kuadTUjC7yfM9h7Fj3ybPs5hxm0wEjEfRrHMCrq6ttdWv8PRhoYKEHgfeVfarKy3mXCokHBFwOJNO2ZUJ66a2SmrVcEnXjJVFeKYmKKiNSqZnLJDV7hSTGTet9r6prBH3bUkFJBl7/bb/6a+l455eSP3/GND8c6eK3GUiNSxUOI9bfqiAwOgowEGgqeUhKuxIqnLaVRNmeTR36PWMXXRpDBWOCWc3XTEmv+C1JLf8NkbLqgsNdk+TPnZTcF3ttuaetwDi2z1Zk5DMZfU7zXcpopknYJqFjNZ1xbdohYVc9QONNTljepy0VAKt82Jfmpz99Uk6fPmOz2NIH24Q5tLLXFU6uZ86ctWMt4kilkjJ16mSZMWOakSQrXIlws3eRWbOmy+23r5M1a1aq4KkqXA0IGP6gDx858oW89tpb8l//61/LsWMn7LfoBIFJSW1tjcycOcM2uXUbbA7eOOaHRIgbq/5uuOE6Wb16hU1UPv10mzz11Avy4x//3N7hjI5TPm+MB2ypcNNNa8KWClcBcPjOHdkpmfeelA5W2J1hFb0OoMiHcVOk7IaHpOzmRyU5aY7Kh/4ZlwYC2/Tz5CHJbHlLsod3SL7ptMnDRE2DpOeskqSSquSk2bZSsaggQsuqsrT9hX+UzCevur2u7GxglVtsqXDDAyNqS4WBkyp8kXw9JpVQQK7GuCNdUhOVXNVo5eMHzioayFRTu9h+U0PmvN0NSKcYqXIXbUUD+2bkzxyVLEtbd3wg2Z3v254h+Ta/TUTh9u7ALSWTKvJTIFVzH5DU/NJJFQMo2ygcORLdUb00MPCyxw0bBv7gB4/bZoGQtDiYFd95561y//13ypIlC7X/l56GQ952VK+vDzuqB1x96I1U8R3t0Zw5M+Whh+6V5csXK7Gq79O7WCo4t49JCRorNGL8/cknWwOpGiEY7qRKO7XKxw7JNZ8TYZNSlBD6MxadRO04/aw1M2G3CKSqB/RGqoDWCTuPJyuT7py88RpG63NJJS1tkCn9NJ8pQuGZ/oJ0S42DYnZLqhR2XUNGiVVzoy0jzR3+XDLb37NdYHOnDmu+0ehoosXYONDHSyZVPj8TV0p67oOSXPCwMv9p+kzvpIomY+Bsb1eC2o9Vkex9s3fvAfmrv/o720QUbVccFRUV8sgj99vmnWvWrLDs9hUM/szmIVTRGX5AwHAH71hvpAot1eLF8+Vb3/qqaZE4DmYoQJJJHWfTaZ2oFt6lzZu3BFI1QjDsSRVAAOSUCLG7Op+Avpgq0zzBAXoY368xUjX4JaAvtKvQb85J5kRGMkfaJXO8ze3ZVPCbch2mcH9/kUsoSUtqh0xretqo/Vl9GIUbuZRoVRr7xjEvtWidrRJMr31IUktulmT9ZL2ujJwORugzeA6ipYNzulLJl6YxcZUk6udLopx9s0prDgZPBlcGSrRBfQ0cGVNZWd4j2eFnl0aFDdDF4ukt8Cymi+7SCAi4mkG/ZuKA7yF9vdg7MBiB9w+TX3iXAq4YTCDohB9/Ks78I+h3+y30yS4YMlpo+061KrlqzEruvDtmRgZj80sjbW5X9HyjEqrzGiBXAyVVHoXOY6saGqZKasH1kl59r5Td+JCkl98hqWmLJFEzznWm/pQlXSGJ6kmSnMjxNPdKcuZ6STQs1s5a0+fOyQDb39AXFHu+1NAT8O1i52j22uHonRMnTlng+9mz52xn9r6aNwcbpM0GjJhMMZO6fJ60fKLhO3++yXzS0A4MFTrz0GbpkS7HppAHPn0+uM5GkZerviiz3y/pzJlztut4sbq5ku0HSB9NDhpa+lVn3bl+xs7lXO9/Pov3/cEOVxq0d1ubO2+Q9qUOaW9fj7gkXOn3NWCIQT/0oVd/mALs1p7u9fENIeiTWe2b7FTf0mhH7+TPn3Kf7LPV2mxaOKf0GBj6eEyNZizTLtkd79sZQNLeqpWhvKyH+kiU5ZXV5pTVahiIW03hPc13KIFqViJ1TsNZJTZKpiyNCo0/2dvLTF7GKKFZZaRGUj3Yga2hk7bNQrKmXlITZkpy6nxJoqLM6QB8oVGEk8VjA4gdujxK06nK6h/RaxofKylqp0lq6lpJzX9Ew0NK3Bbr/f4wyiHuWAUw8GEyePfdD83EgVCJg1kxh7fiK4LD+mCAwZaBGQHG4AxJwaxy4MAh2bPngB29g68XO0Rz6j73OLLi6sW9y30XMKQLKenoyGjaHZZ+1+CIiI+XT8yq/A4pwKn/6NHjsm/fQTusdv/+Q3L48FETzuxkTdxoLFwc/ctjMRAv+SUPpHPixAk5ePCw5uOA5uGwfaf9EGznzzd3EWi2KMQwuALZ1WXW6vLCBcjUWW2zo5of8nTQ2pI2pG6ot2jdAF8//YGvD8p5aRtmLF/A1z9tyG/UH6SPuuI4F0zf1B397MyZMxYf95NP6iuZdPmDFFKmt99+3wgDiOYd7dT48eNk5cpldiQMq10vF3hvdu7cI599tt0IP++Jzxt1XVZWNuBjaoiHQN1yniDtCZGijanDvXsPWltzBuHp02dj44jLi2+L3uD6lSPp8XZ1we0w79umlDg9iNtNAIjn0vi5Xmo+4+D57seVzMXxy+e7KPRZO1/v8A5bLIXPkmZKLyBHamy7n9R0ncxfgWNqLoLxhKNl2ACUjb4xAZoZkHxqnqL54l6ucb99amhtkeyej90CsJZz3KT/tHzlo2zFfXrBjRZHwj9bLFidkBaJlFAP3M9zkKmONpGmM5I7c8wOds6fPCDCcTn4TJ8/YyZYT6guFoXPUtOKYPB9qmJIVOmLMCYjiRoN5aUndRHETVmVTOVaUpJv0tCaMG0V5/glq7VhiL9WQ9pVSlFQzJ58qnqDdSp9AVvOS+74Psnu/tjOMspxcnfzWb2m1+kUXXyq6Aj6rB2NM86IXHL6bUbqEpqPRFmVEa1SzX6DBQTE7t175b/9t/8lH3zwsWlf4kBgPProQ/Ktbz1m/iIDBYMLAzMDMofAbt36uQk5DoBlQCZPbgDKm3DDUZ5Vh/ipTJ8+VebPn2PnCE6ZMtm2g8A0WQoYiBEGEBEEEGlFQffHtDJz5nQlkfM1vQaLG8Ln8rnDhBdCGKKH9ow4efHSabacqDbBSr4WLpwrixe7sw59HvszUJMnhMvBg0fk8893XawrSAAaAn8kCXVF/AhMHJlZFMAZcZMmTZC5c2fKvHlzrO5wcCYvjjT0D+QJIYGWgjakXnbv3m/1cuzYcfvd+fi5d5C6oQ4aGupl8uTJ5tCN/xHtOGFCg+WlL3VDvJDazZs/M0LL6+yed2MK39l+YPbsmbJq1XKrE7QnkKJNmzZbPZJvtCpo9CgPeaDtqTcmDgsXzpPrrltuE4mqqiqr7558qnAaX7JkgXznO98w/6XJkyfatcuBofapony0J32e92DHjj32DkUnE6RJO0AYiB8fM95XVgzTztQn7VFdPapXUnfu3PmLbcU75nxFO/sHvpljx46VtWvX2DvK+FQqiI++w8HT9FNHvjv7zvz5c60deVdKBfXDO8qYwlh64oSSIgS4QeWTXiewAnrFiiX6OaNw7VIMe58qSEnjKcls36iV2ajZUlKFzEq57RZSmq/EOK077X95rVs7x/CLPZI/vt+RGcrS1iKZHe9JVuVlvknHYDqOls/O/pu+2KxA5lpDH3bN0gn9KaFyMtEwVZJsecSeWOke2r8QNxqp3NE9F8mqLTpDO6W/oxDR3BbKUS75imqVySqj6yfbwdWpaQv1c4ZtvSR9PJOwn6TqrwqkSiuHRu4hwQGRqrwWu0NDq850MfcpqRJMf5lCxVMno3VwvByk6iIwazZL/sxxexGyuz+S7L4tkqUTNZ3TTsLJ4hlJNihL53DlqgbtBPOVSK3Uzrdav88VqZ7gCNUVwuUkVQxgDGQMaiwD37LFDUKQBAZmTDJoEjxJAAgHT6yqqtxgDVlYsABitViWLVukhGG2EQkGay9MioGBn9n1u+9+IE888ZwJhijo/qziuumm621WP2HCOBOgHFZLfpmRI0TQBKE5ozz+lSFdNALUFXEgUCAPy5cvUeG8QgXKDCOGOBiXAoQh9YEwR7iwwmvnTurqqGlNXF212cw4mgcCabC4AH859k2CzCAkyMPcubON6CH00aZwb091FgV5oswc4Eu7Qaa2bNmmAvCw1ev58+dNaJEn7i1WN+SHLQdmzpxmgnbZssWWH+oLn6FSyB5xv/PO+/L447+Sjz/+zNKJlgHBPmPGVFm37gZ5+OH7LL+ffLJF2/FjI1SQ96iJFPA8z1FvkCjqZ9WqZfLbv/0tI9mQlWuJVNF0aDgZHyBPbLnCO8Anf0PouYZmLNoHAaSd9qY9PbmCUCxZskjbe6GRK1ZHdrc3HnF/+ulW+cd//LFpvujn2kLuogLyy8Tl29/+qmkG6d+lgrHmrbc2yk9/+pSOdac075yR6K5R3htuWC3333+X3HXXbUXzVgzUNxOvn//8KdNkQtgzGTfZArQBuO++u+TBBzdYv+oOw35LhfZWJSe7pf2Z/0/ypw+rTG63fKBlSi+4QVLLbpPUvDW8UHYtp8Qp+9nrSsLeNSWE1zSZNs7MbH4LH+0/SR2LRtWoXB5v3y+F3kOlllVKeu51KrfvkNSspWJO7XFof7QV/Eqcckd2S5YFZhCqEweV6J0RO/wZ6xIkUevXSBV9TMuSh7R5f7Gaeqt3tIPJGUuUyM2TxJjxbnPTEhQg/TD/dUhu54e2X4W0XXAF7qEjXjT/YZ4rRbaQacgUxEnJVA5TX6PTUPE32qkoEpBIH38p5r9RmP9W2lYGzvzXfd6LQ4WYMtfE6DpJjFcmy2ZoVTVaNs2fdpxEUvOBAmpMlQZMhjdKauZ6C8kJK0xjxeajVxLMsIba/MeAC1n64otjNli++OLr8vzzr1iaaH4gcgzQ5MUNzo4cRAUD17iHAZd8ohU5fvyEkTHyx0CLQOyJJCBAGfwgcy+//IbNup3fjwtO2DZLff0YFQa1RmjefHOjPPvsyya40BY1NjZdzKfPo0+P+BHUzLQRvAgftrpA8JA/hAwCDeHdXR4B5UWzAgF49dW35Ve/es4G688/32l5pMxRTVA0D4B8IIi4D+0CRIyZPyQS8xyEgjKQj1GjKlQI6ixTv/cEBAfPHTp0WN57b5O88sqbVofvv/+xCpGD1i74xHmSAny+qCt+v3DB+eDQbuQDEy9kjLjZCw3S5Ta17L1+aLuXXnrDCCd17XyjXBuigeIeSCPtCAF78cXXLgo8X/5oG7p40cg4DRwB3HrrjUYAqM9rxfzHM2iSMZNu375DSch78sILrxmp9JpS6sf3QV+HPlCPEC0INv0CYoSZHPMgfZK+4N5Xt0AmTqSZVKFFfuml1zX9nfaue58t2pfxgvds9uzpBe1rXeHJ3kH7M+48//yr1m/RrB4/7uLmO5spo91Fo1SqBpV6oP8R53vvfWTEk3z6/BKoh+uvX2Vb0kAyu8VwN/8pCcqdOiKZt39h5M8OT248qbPzc5KsbVB5OsuC5Q3CcuqQZHdtkuzn7ymhOWDnBpqGCHchCNbFMugn5eT8wHM6aTmrgc8u4bj7RGEx2m3YnayfYgSoCyBtWm+YF7PKTzKbX5LMZ29Ibt9nmodDTjvVrnIO8yVpWh4K+WBMRfum182/ivR45rSSW9x8WKmoBNLkPpalXoht77QrDjJToQlUVCspgbn5ChoEwLpSlcoiK4xMZU+mJacBUoWGyt3jPvoMntO8JvBzyitTzmoFU1nGVvsBfRHxt0rNXCpl674s5ff9G3NmT8Ju62cYgUov/rqkV/6OpBY8osx3gTKVCsvDSAcDNEKTAeaNN96Rf/qnf9EZ6I9M+8NAAxjk/eDqBmb7+SL4jWvc47VRDLrvv/+R/Ou//lK+//1/se8Ia9LqCT4u4rk0lNk1hD/CGjLzy18+q2RmtwrSZr3mtEDdDbadcbsZAwTus8+2yc9+9pQ89dTzZq5CqHgyVAxOoLUradgpv/jFs/K3f/sPJsgZmJ2AJJ/Ruuo+H05jAGFKmmYLvxeI0N/93T9bePrpF1WwHLH0egJCELK5e/c+eeaZl+Wf//knVjeUDcFJeuQJYtRdfghcd/elTPhD8p577mX53//7X7WenzFNiBe6vcHXM20GaehsQ1dm4jhy5LgS4pfkiSee0f6xyYiArxdff1HwN21MPjFTIfwwByL8ryXwDjHR+uSTz+Txx5+UH/3o50ZwIEX0FVf3rl8Vb2/ax61K5j4AkUXbyrvwwx/+zCZVkGpn3uv6PqDNnD59mpmsMVd3tq1rX9KE5B4+7DTcvBelgPuYZPAuuUmF06i5d4pQZmMS5SS/mPZLAQSU8QgS2t7eZv2nM060xuWmyUSj3het2rAFyg40SUYqylxA/mt/sMb34Lvdq4HrPngyUqTv2O9cv3hfsUDaPF8kDoga2rRjeyWz6TnpePVH0vHBs46gQqS0T1q4mH7k+YvdSH8jDfKgabB9UvboLun48Hlpf+Mnkv30VdsA1eLrpe9pKn2AZggikZ5/vZRdd7fZHRNVkcOIS+zoF8H9PKJkKlFRK8mxc5SR36Hfl4g01iq71ex1uFv7TaY8tEITlco0KzOSaN8hcuZtZaGHNH5lojkS6WPeI0ANCoMuu/WrUnHv70v5nX8i6TX/hyTnKcmqm6XF68H+O8LAIIbwRGPzxBPPys9//ox88MFm01o5AXbpoMwzxUIU/lk6AsQFcx6moFdffctmxcx0Y4+UBLKC0GB2zOwc7RTxIyCiee0pbx7cy6yXywzUGzduMg3dRx99YgSl2IDNvQzQ27fvMnPOSy+9punrDLAg6ON1BeJ58SEKX1+e1DQ3X9B8fGbECGJF/uLPeCDwqAMI4ZNPPq9C8Umdie8ybQ1xunYoju7iBK5+0GrkzHxI29GGb7zxrmkIEXr9AXGSLkIO0yTx0v8gWcXqrxjINhquuXNnmVm5pzKONFDvkIo333xXyc9PbSJ0+PARq9PuyCigznprb/ofJAhNMeZ3xoQtWz6Xs2cbtR90Pkt/h4hMmzbZCFY0Pd++jlQdtWfRivUG9wza8uM2RvCexfNL3JiwuYeAw3kpQEOLNg0NKROyaLSkwTYbU6ZMUqI4xcyh1xR4d5Ss2vYLaHgsqAw0wlLkfVT+4I6+IaCwiQWe59M0RbH3suA7ld2/RTJv/UIym1+V7LF9TvsEAYM4FBoH8x38xeJi41JCZZVLm/z6vHE/3xnLvenz7V9Ix+ZXzLRpxKoHvtDHkUMT4iWbOl/SqzZI2S2PSXr57ZLSv1HNWUVezJj7KA4u6gCLAzer8cYtsK0FUku+Icm5D2tcC5Qp6kyR96bHeHoBeUEwVZZJqqZSUvXVkqzWnzv2SP7YC5I/+qRKv/dEmvfqyHKu/+SKQQdiNWaCJKcvleSMNZIcv1QJ53itk0pN8NoZoBn4MJlhKkK4YUpAQDPQMID5wZK/Xd/1/kBlNqgSmEkymMfhn4ecuFnwFnnttbeNYGE6K3VAjINZOqp8TJXEgzB2+XN9weUxfXGGS974jcuFWy5CfzYQBwM5M3VMD5gdmKH7OD1IGzIAocORlmecI3xnXXnwN2ljLsPsifnJm8+8dgrE807AiZa2Ie66upqi9QvINxo6TD6vv/6OmUIxgUGoIEPxPHVNi1chTkS71pHPj9c6oL1EgwHhw6TlfOv6DtKCzKOVIB6EHumSls9jT4H6wOQ3f/5srVMdZAtlGMmg3L6f0g5oNPmk/iAjIFoP0foCfuLhEb3mwfP0GzSGrJxlTKBPYeZuamqyax4QkRkzphc9gYF4IX9ov5kQ0Na9AdJGupj4ID+UNQ7XFzvMvIi50pe7JxAvWmBMoowXkLUoyCu+jRD0hoZx9o5eK2BSiaIlNXmepBeutTMD08tuldSitbZFEXJS73I301eUA+Acnl6yTu+77dKwlE+NY/E6c2hnO6Powc22cEyJTuaT1ySz80Nb2We7Evg0IGxKnJJjJ5kVKbXwBjvjN339/S6gHFpys51fmJw42/ypIIMG+j59uvWC5I4flCzH9Oz8wEyD2plc/oug79KeSqtr0Ews0wzdI2XXPyDpFUqI5qx0lTZqdIGRcjOJ+gAKn0klUxW1dixLcvJ1kpq1obDFwMNasDUaB/ZnslY8072CyoBMlSkBHFXuCFXdKAvJSr2WOSVy7hOR4y+6cOpt/XuLSOtRJVc41vWTXClsy/5qbZgKnZ1EBqRrAQyQJ0+eMT8PNDQ4NaMeZ5CJCykGTfyNEGTTpk01Z2pU/3zi4IpzLepzyENca0BcBNLCaRlitXPn7l7NbN2B/CHkGRz9wEuaEDz8ZFithhM0K3hwYJ46dZKZiNBoQGbizczf5A8fEDQAmBXRhCEM4gM7wp970Grh++FNLVEQF6SOGS/O0Kzsw9Ebp28+MTGw4op8QpgY0Lk/XucIKwZ6fIBwrI9fpx7ID9oAiODGjR/Krl17TNAUa0PyCaHzR6hg5sDRH6d08oqztKufWAUVQJ0jmN555wPzgcLkitagf23IOOdOGYCo8jfpIvgR1tQJZaY9CXwnf96fC8FH/c2aNdPIc3d5vhSl3jf8QF9kcsJ7ShvgK+fNZMXKzzvL+0jdsQCDxSMEvvMbZNSZ6goPFEBc9B+IudcIs0CGfkbf8hor2ol3n3agPaKaLADhxkTpFo44/7eewEQCsgRJZGLXXb+iHiBHmLrp//F04+B+xhripUyXuh8krD54P3kPupvAjEhAYpT4QFJsf8e1D0vZTV+SMv3O1gnGDyL9Aw0R/lhp5RFlN+q93B8NPLtWww0P2p6RkCNT3gD8u/H12vOxZLa97bZK4Eg5QBpopnA6nzJfidM6ywMuOmU3PWIuO2Xr9JPvmm76Bk1/xR3mDJ/EV9p4jLYbnZnBpKNdsoe2S2bH+5Ld95nkLxQc8Iugj47qHpoQGR5VbUTKyFRtg/It/Q1tAftTELQTX3RUJ6R5ju0F6iUxZrYkpyqTnXu/JGfd5Zy4y2sk36GdWiuJQ41LcoSPO6rrvQklVMlynblXK6GqU0JVo4J5lOZNf7+IvL4IaKcuHFEypaHjlGtrDir0dlzzrO8+7asVDJpD4ajOAInPzSuvvGFaDpy3GcjiAzQDLyp+VP0MPCtXLrWl7IsXLzBiBYFBQCPcWJ2Dqj8+cBEn0TKoMcC6+Dq3D/AgfQZAZsmY9oqtdAQuvs6A8GCWCVlhq4UVKxZbfbCaDqdWnH9Jh4Gb+uxuwCbf1AuCB3MAJBLh4cHM+4MPPpIXXnhFv5+6pL74TjoQIsgTdYXzK+3CyrMFC+YZUWJlFGV3TvGYINmbJ2vx8R1QDlY43XffnSa0oukA6hmhirYCEyEC0Jv8ovcSH7+RFvmiPqgn6saTO4RKeblLgzqI1w+/E7xghwxBcpxP05iiabLHFMcqoQnl7+h1Dx8vlxzpqygQvnEFElBvhBjyyYo/+hh5457rrlum9XOrXeNZ8tW7o3qDOTjTlykzVV1qiKJYWXoCAn0gjurcw3tPXb7wwqtGalnpCorlhXeW+uK9ZDyA/LCijzTGjBljEyTSIF7a1Pc7H5f7dNom3leu8RyThOjpDrx3aEn37TtkRIh2iIL7mNzgf9Wj87eCtOjD+F5yAD3lLVY28kLeqSdW6TGZw2zZHahvtFobN35gfdJroInbfSbtPXj44Xvt3YTQ94jh7qiO8/m5k5L99HXJ2/ZBOhajXFFyk5qEHF+g8numy5sGM6fV4cA+01Yscthysm6C+TzlTx7WQbtRI9XxQMd2Vtul56+R8vXf1DIutC0TkpP1mXggDrZS0PvN3Qiz34VGO6M3s+UNye1XosP2DVSP1ZHmA43ZrGVStvJOI2VpNFIzl7m42DqhfooRqNSUeVa/yUmatuYbM6O1ARoveAwKFqxNSqzYPJS2wTonrBSMWucK6Cep8qAStXIrRkmSo13GT3eZKi9sF8DSy5TOeiqzkqxSMlWtg2W9dpBp67Swd2u4UxLjFijJ0s5SUOmR6dyezX0kVdr52MqgTGemFQUyhXZKyVRC/zYyd0kc/jetsJym03bKfKwS7fqZZQDV33HGg1iNMHI1FKSKQZSZ51s6C33rrfdtsHZmrMINCgYcBBHxsfT93nvXy4YNt8ttt90ka9astK0S2IuK1TIEd/p/veUFoRYnLwxizCoR2ghABvnx48crwULF7MD9pZAqQP7QrLDfEeVev/5mFUp3yJ133mJbLqxevdwEKFsCQAAhfzU1NUZGMGVQXus3hb7iB1lX7korN4IgukqMOnv7befL5QV3FORn3Lgxcvvt6+T++++We+65Q268cbXW0yLLA8HX2aJF82x/ILYugMSVlZWbgIOwQBrWr7/FygMBiAsr8ogQQwg988xL5kDuV8PFgcChHNTRLbesNaJG/m6++UbLG4KJpfQIFO6jDGgBvSawq2BzZlSIJ4Kbmf2UKRONDEXJMfkrhVR5oIGC3EE8b7nlRssn+WOfI/oa5JRrbtuLOltRxlYY5N2b/3ojVZBjSOWcObMs3/Q1nik10Gc8aaVO423SEwZKqniXiANtJCY53g80h/E6JV4IEyRh9eqVdsj6HXfcrO/sOnuH16xZVZhwzDeiRb+jPV17d9Vw8kngfUXrxM+8E9SdJ/nkEwLEggZ8nNA0RvPEdyYn9HG0xtFrUZAuWicIFT6NvGeUubv76WuQH7ZCgdTTf7oDWi18DHE7wIRN3/Xxki7bwFAfjzxyn5LQBmuLHjGSSFVR8II3296OtvknBzPzG32jfJSWb56kF91kZKak8lE3TNQOfS6ZrW9Ldu8nWn+F/Qe5hsJH6w3TY9ma+41MJcdNNrKnHUpviqVBmsZj9L2vQeEzXjlJjbLnZm2LwjYMflzPaltDBiFs9ZOcRgvCFcEASZWCDFEIzszThBI1Y53KTQmUOaeV62BRN9o2B0tOWaWd41atxLXaCMv0vml6j2YK8lIoKHtJ9I1UKZGCvNbq52ht5NHl+ndBM1WOdqqn5wu/2+GOrAhUIdKhjdN+WhLmY6WVaXUJsYJglT7oDWcMNqmC2DCwbN78qZEqBnq2IYhWuxvo06ZtufXWm4wgoJ1CILGZH7NDZvoEBlmEFcvV0QSgOWBwRwBF9xnyQCMDcUJjwoDLp0eppIr8MbBOmDDeBC7kBSIFWUGgoOmAmODMTN4ge9yLqQshzEBL/hAm0YGbeH3cCDmvreIe8obJD1KFmY2yxUF9UGdf/vIDpqFilo6mxZuwXBitdTTaBBpEYurUKdZm5JnrtCVmwttvv9nqHHNdHBBDtk7ALMNSejRoxYQQwo8yUDfEd8stNxjBQ8DxO+nTZtQNecBUym+UH98V6gih6uN1HwhanIjdfkQQHPoA36PCqjRNFUQU35ypWl8rjfDdfLPLIySPtqQdCNwDcSc96hgtKXmG3AGIT0+kCiLE1hTcj5mbfNGOkIJSAn0S0y/EHOIS1WD2hoGQKq5DmMnDyy+/aQSa8SBap3yH5JEv3gGIKYSKPevYLw5NEe8Z7yjty3fqzmvsAOOK821jEHUgfv6mb9EPnPZwnPVn8kia+HhR77R3nGjyPOlhpmUCwd8+z1EwRvBO4r+FY3wxLbAH2fNmYiZ2TAR8GYoBske9s5UCJn3eHR8vaaDNg5zfe++dpkHvSetlGOmkirK0RXZUv4RUzTefqZJJlY735pzOZqL4UR3frwNYp5YK5Y1pqK6/z7kljVXyU6ZcxOR3N/GTLqZLeAwaqOo6bRflBBfOa34brY0MmrYLOUlNmetIGPmOYOCkyoPCaCXTCbCpmsYKglVVpSyRnVCXSGrGOklNXqOFxLbK+XkQla6F7LOmSqNIViuhqk1Jqq5AqCrRTmkFdv9YDIUbMQlmUPup4G07oeEMb6de1oouU+bar32thh8Gm1QxqDCAsWqIlX4HD7IRXudA4wdVBitHqO4yjQGDI4N2VCPBMwykCAUGNmaNkAUELIKrsbHRnEQ9uJ/4WYEzenSVCRKImo+zVFIFEORoL9avv9W0OghhSBNpMzC6vDnHeshFXV2d5Q2BgNbB+Xo451tfdg/MmNQjAhwBRP64j01RMb2wkoiZfRwQOAjBl750rxEXr0WJgj+pM2bXrs7GWl1PmgTpqzciiHYNLRtmwvggT/1hwkD4QIoxR0IOgU+Le6gH8g65u+uu25VYrTayRh3Rjlyn3fh0flZ1BYE70bQAvp9QR75PAJKgLnyfoZ4QtlGBxP2lkCrahj5zww2rrB3RguKnh+CmfakfAt9pO37HBDV58iT7Tj5pY9ATqeKTIpBnCIojVHvNAbvUACmCVM2ZM8MIMHVYKgZCqiAcX3xxwt4H9vJyK+M6tS2A7+QH7S+aWrS2aPhYzcYEiHqChBDok7wD1DttzXV+h1CxCIPxhomXj564qTf6GP2EfFJ+r62i3pls4OsV7ScetJvfSJZyRvPtQZ2w8OS1196xTWuji2UuBWk4MzuaS8rIO1TsXuJgWwjqjsUV3tne38t33lPGNzSjPfkUXkQgVX0iVazIy58+Kpktb0ru4HbJNZ5yaSjsWLmJs6Rs5V1OQ4UPFjyjVGj6xmNYGah/cqROvvGEfmqbWNY0HUhda7O1ixE2tFoR9EKh+wEqWzsCdlBWBpZd/6ikV39dK+1R7Ri3S6JulgjaqcHS+rAZaEYZZlYrAtLDIMyg2HvbFIFVo8bXrJ18v3by17XRXpP8ya1K9tgEzN0V0BXs08LsbdeufTrYH79kgKZe8TNAsGM6wESEYIuSqe7AgM2gi7mBWTKaBoT2pYNt3oQMgg0tWbHBuDcgEJhh3nzz9TawIlR6GhARvmjRIBaUy/lPjOqSNs/zN1sqMFtmZotWj9+86dILnXiWedaTS/xZooKxJ/AceUerBYn96le/ZJo3/vZamCjIC3WG8GG1JqSV3+Jlh5xh1mCX6LVrVxtB7MlMwvP4yEBaML8h4BHMkCVIYLyeSBeSsW0bmgVWoF2quesJxEF/Qagh0NhRnDzSX+Jl8SAfCHYIAcfqeEJVCiAnECo2fmQxAuQYk1CpAZ8cnjt+/KS9M5cLkBneU7RqkMa4hpR2oa9BdJx593Yl5MuMzMQ1R1HwPtPv6COYg++++zY7YcCRxa6dG/IBIUFLRh6iCxSc1muKtQuI9hNM7BBzNKlsPeKfiQNCx3mdlJPVrFHiUwy0JZMvjl5iBWk0zSh8m0MWi+23RRpMCOh3JRGqgL4DU+KJA6ahynHkDZoj6pkxq7rOkVAlVPh594lQecBhypWcEc/0JZJsmKbcgrGXttSgpDJ/9phttZA7d8LSjWLwSZWHvnyo0pJjp2qYoSx7givgYHYy6rFDhdNZneUeyUnHvg7JfpGV3Pmc/e7roC/IZzS+CxnJNrZJ9nSjZM+clFzzGSVaDDzFX7RrHS0trTazZMbb1MRA01lPDE5oGxBa+GAwu2RG2hekdeaAxgWtGc+7wb2zYRm4GOwZDPHFQFMWzUNv4HnyBCki/okTJ1iapQyIpIvQYEaP+QizV7Hx2Gs0mDEjxKgXoofkMPhSnnhy3MPAjRYLTRvP9hVoDNDAUGdeExAFaeDfwpJztC3Oj6XrsMA9EBNm8WipMJHgh1QKKQakiSaDsxHpA/h+QRKj4B4EFFoKVgGyiSfaIdIuBdxHftCSkD+ILmaYoQb5pr4IpN+XwEaU7rP3fjaYoF7RUOOYzv5l1F20X1DlaBnx18Ps5yYYl2pIuwMTATSlK1YsNTMxPnL8Fm1L4oKgOFPfIZtw8I5wD30LbSVknPuiz6HxZQJAPz182O1PVwyUkf7sJzFR8E5A9n153KczSVIvjCPFTPHkA7LGdY678e+xB98h9eSb/NMnSq2zgBKBgzq+Tqz0Q0Nl/k4FaFUncECftsC2N2LLpv5Dx2OUQxNmmLO9+U75cZEm176bVVKVP/OFZqlrHxw6UkUJ8dJXYiVlOlNBizRY2qkodKKQa80r+ckqscpI5qCGQ0qKTii5aiqQq97Ai6EzoFxrRp9pk5wSqlxjq33PM1s2f4/iM6JrHW6Gx1EmR0wwF5v1OsIy04Qp5qC40O4dtGG+YLKpsxksmq8oiNOp/I/bIF1qe5E/Bj6EPsKDwZDvpQo6noUUsZIJjRoEpthACmFgJuxJFaSPPLsl6qQHQbn0ObQ3lIezyzjuB7MPg390MO8JpIEQccTt0nonH2hJONYGgeJ84SB4Li+kQ8DUidYBLQRt6Ff2lQrSp24gVhx4jMkQQhEtB18RgPQlTDfelFoqKCfkEUJFHqnbywFfX30J/rlibT6UoL55X9HicJwS72/XNkBLlVJiMMHI6bx5s0wbS1uVCt4d3lF87PBPRENKHNF0KLvPC5MGyJUnPxATSBnPFfNH4j1HU9TdaQoQLfoxzum8b5idPcgbmiTKR38B5IOsucnFKXvHWLkcB/cRL/dArNx72FkWAqQeP0L8RH07BwwikMUclMzRNxw9432daAhMfw1TzfyXqNBJm42pAwA+VtW1YucSskloLD5MkBzSbP5cEQwBy7kCUKKYV2KVO5eTzDFHqoxcfaEk6SxLL7XCs50vdBdgdulQQnWhQ3LnHaHKQqb073yHDjg6pqvYvdxj31UDBhYGICeQz9vfcWC+YtbLIOtMAT2DwYnBEi0NgycrbDglH18GBsnuBC0EAZ8pSAgDJPGUAsgGgyGCGI2a37uoVHAvPiYIArcVxKUvM3lh9kwdYdbib9KlPjCzdOcbAuHBhMGu46+88pY5kuOHhU+cI2cDI/uQT/Ljzlo7ad+jIE8QWIQEQg7iiYmzmLDrCcRDWZnFO9+uSVZn0Tai+Jh3IOeQY8w8rh0LN/QA4kebBlnD38YR45ExvA0WqGtIFPVKn4r7F1LP3EO7MLmAANM3+/o+AEgYkyC0v/i0EU98IkR6EB7GDkg9fY93mGdpR54tZl7GfMk4AKnie7QPAd4Z3o+jRznSpsXK7IFZk/7BwgT6Y7RcvEv+OTRRcZAOJkdIFelH43V1JzaGYL5E0xcw+GDLJfy68PGyMwMj4x+HLNs2CWMnawdM6w+FC6WCBoS0tbZIvumM5JQ0kY5to+D7CZ981c/c+dPCGYj5C03uWgEja9SBACmByp7OSuawkqrdGvZnJHtcyVULvb5wn69srcRcGxotJVJnL7jQzF4UkCl/c0BPYHaJ8zh+IWhVug40nVognN4ZZHua8fpB38V53kyKLId+8cVX5Sc/+aUdl8ImmQiD+EDqwWDHERueuPQGbkH4sgILn6HKyp79qIqB+5n1QshwcI1rSHw+MB1ArPBB83UD4UTDhXmlO00Sz3EuIIc8P/74E/LMMy+aLwpCxZsgSilrMSBIWluddghTCelFy893BBFCFj+R+nq3crE/oO3pC2i8WHlHf4iCeCF5aPTQFqANQEBqDbobegDPouFAeHvH+KsB/azKfoE+wqQHU5vXxlBvne3p+hHvAe3t+uWofpFT4nRmwAnW3hANtJXxfsrfLj8ntZ9jinRCkkkOJnXMxKQffY4JF1pMDkXmmeiYA3jHnMbpuGm1OiceHB9TbqsG8e9Eu+zidle5j76H1oz6iYM8sFiGfkn68bJQZspJH7xcWtJrDhApIzMnlGAxAexsAxz5E5j9ON3F+myJLxftSL9jH6rmc3YINNs/ZDa/LB0fvWQ7tbMCsIuZj3dGyVYeny40ZhGMLFIFqEfqqF0JUyO+Vhnp2NMhHbs6TINlJsE2gpKtc62SPaMzGf3MtTjNlL5ZLoKAksAgjV8GzqBeFd85SDufIQQpgzSahDgYmIjDkaiDtq8M581xCPP3vvcj+/zJT56w0+DZlBKNCrPP+IAGUO2TF8gGg14x00AcZNULe0wWDPz9AXEggFiBGDUrREF+mFlnMp19DAGGH5d3jC9WLl9HmMRY/cb5fRxI/KMf/cwOD8YsiGDyZsW+AM2QM6ecMd+4SNMZnClnlAkLdkuP7gHWV3hBy9YUxIfgjKOzPzRqGxbXfMbh6wxBhrM5bVmqU/9ggHL1NxRiKIShBaSB/gcp4Pw8vnfmoRNoifANpG9COordUwp4lj5NXJjc+E5c0T7O30zGIHi8u+SR67QhCw6cqblzYQr3Q6JY+IE2k7LEfaboN25RyDntP85PyyFhRJ7FLmjB2P7BTfI680N/g6wRN4TeP8sncZEegTxHQRUxvqEFa2jAtD3yROtwACv/IDG2Gg+SY+1D0Pepqs75PqUZf3vrs/oMWilPonZtko4Pnpb21/9F2l/5gXS89mPpePdXktn6puSO7DQ/LscN3KOka6sQm85o6KrxHbktrwU3p/OWnBInJVdHlVztV4F2AM1Vu9NKQaaa2yXXppWLw+PFly+gVDDQoEkhMNh1DmAODFpoDfCFQqAC7oOEMSNk92T2koFI/fznT2t4Sp544hnTyrBFAySC1VWYB1DNx7VhgDQZjCEUaKjwe2CAdptx9g6IAwM+mo7+CGMGegLlQwBcGod7wckj5ixXT/aTpctAjAM4Dr2Q0HgdAn5DeEB+cFpn64qXXnrdCBZ1xmHM7He1c+duM+8gHIrFEwXXvZmVOnNaoU5w3QnGStPAIZCKmWP6AoQN2gfiw5csbhICpEt+IMZdhWL3oP6pO9oQUku+hxqkBzHEz4zVkGzfwGrLUoK7d21ha5HxKpDduzGUoB7pF9Qr7xH7u0VBHfIuQHrxTfMkqL/w74SLz/lCRsF1ApMBfKvQEvl31vlVNRjxiZuJ+Y6GCjOxn0x48I7hMsDY4g5tdvHxDGlB7qhvttCAXPkJkAfv55kz7vxIJnp+rCFfLs1T9n4xzvi6IW72K+P9wESONvdy9L9rEhksSRfsUOMufrP0pVHVIpwt2J0vFav2LjQ5X6iDn9vRNplNL0jHe08Zger44FnJfPKKZLe/K5m9n0ru6B7J4Yjecl6f1ckd+1nSj1SmsY2C7fBePUYHta7j/chvea1301qdV3J1LCuZQ0qsvmhTQqWz+hZtIB20zd+q93E7oAgQygwwCHw/gHkw2DC4oP2BaDBoMgNk2wPIEn5CkCfIFOa9X/ziGTsyg/2zIFv4UDFwos6PClc+o4E0cIbH/IZfEzNtP+CVAp5nllle7g5L7g9IjmcZXLuLw+XXzcQJgEEdc8G6dTfaailm5hrbxetxMLgjEBn0WSXHmW1PP/1SgYw+a2cu+mM5MJPSLt3FBRAaxIfAoC3j9QbpoW4xUyLoBiosfFshgNDqQUyKgTZHI1mKpsqDuIkPp/++tH9/QJ1CGHC+v/HG6+SBBzbIV77yUB/Cw/Loow/ac5Bq6naoQTfw7e1N0HFQh7QNGr9imuW+gCYgPkg05JOtNC4l0Qlt43Yj9gQ34XAbBfMM2ir6XhRcZ8xhkoXbARM6/zvjhHc2h6hFxyTeS5zIGR9YTYxZknqP9hXuR2tGvJAzT6p4NyCjxO00qJ1acJ9fCBtbQZDvgb4nAd0AYsRJLTioR/ovTWjH46QjC+K8SQ/HdiVS2SO7Jbtns5KpdyTz8UtKpp6Ujo1PSMf7T0vHJ6+atip7aIfkTh52Jka0U9ruNidOV5gmzA5mnjxXUnNX2Y7tyVlLJTG66yrjkd/y/n3R+nfkKivZpqz5UuGkHsjUwMAgxICD8IuTKg+IALM+9h967rlX5Pvf/7H8j//xd/I3f/MP8s///BM7Zw4HbDRSrEqKaigY8Hzgbx9Ii+AG7VHm+Iy24MEHN9jZdqjg+2LKQ4NCXAMRxjzr4yg1Gu4l/6tXr7Bje9iLi7PQfDmLwecRzRI+ZPieQVKpx3/6p3+V//k/v28mU7RZOJ97QRUHv3ENoYSQ4nu0/Fznb7RTTgM3cLLC85ARVoOxKSWksljeIHmO6HXVpvSO0ut+oGCigMaNFW5sjsn+XWxsW2qgn3LWIKbxy0Oq3PYZ1GvUtOVB20BIIUEEp1keaHu7Xfgh0JiO41yD6/Q7+h8b+HrtA3nxq4bpK/F+x3hD38ckDhmjLAT68okTaLC8j5Yvo+vHkDQmX2jOMLtjZuSd9ffxCelkMocbgSdPpHf69DkjW5geo+8Kz0BAp06daOMOmrV4fgMGB+aYntM2MdNf4Ueg9Z1kRTJWAureE6rGE5I7sFUyH70g7a/+UNqf+3sN/yDtr/2LEquXJbPrI9NI5c8edw7nRtb0WesPGpI6nnAM39iJRqTKVt8j5Xd8Qyoe+D0pv/e3bZPRxLgpLg8FXNt0OvT7AYMBxRGcaA93YGCBcGGu+t73fiB/+7f/KD/4weN2DAqO1uwnhaodnx6v9ucZH4CPH2HgSRQzafZMwoTyjW88Kn/0R78rf/EXfyy///u/KV/72pdsbxwGy/5qnfoLsuxC3zoW9zMQQ6y+9rVH5Dd+4+u2LQBCpTtCBKJ1Rd0gDI4fPy5btmy38/v+4R9+KH//9z8wIos5pJggpd7RZuFf49ugE44kOlJVNkj16XaupmwEr6m6NF9Za3N+76b4VxzUO+Yy6ocVkWhi+hog1JB/4hl6+HcpU6StHWhvyJTLExOEwoUBgDbmHEpH0hA5XSOljbNZR/A1exdBvXJgOP53fqLhQf4hU97hHvJD2SBarNzjtyghd2ZnN/ly/pOsRHV+gvTDaNytrReMlDFu+YUgvDsnT540UoUWNdon6QeYNjH9XYlx59oBla7BOkmkAehP+icmQbZayO79VDo2Pintz39P2p78G2l79u+k482fSuazNyR7YJvkTh+WHCsI8c/yflnESaDPs4pw/HRJL1wrZTc9quTpd6XyS38kFfd8V9I3PyqppbdJctpCJVPTbLNRdmCP4tomVQEDBgMOhKo7UsXghxodrQlHO7DrOQKewY9ZpRPmncSBTwK/ERjYGbCYzbPbOQcws0P4t7/9dfnWt74ijz32kM362fkZ8xkOqG7zzqtrN2MGYsyAaD043f7Xfu3LdlQOJgoIDQKD4OupGKgvCBJaQVZAUt/4XaG1+uUvn5FPPtlqWsCuoO0cYeV7HNQheSMU83/qK2gSCERvcZZS3uECykBZIA99Da4OLm8/9e9YV7i/XXt3alwHA5QRkubeycKPEZCVYnnift573mcIqL9OvugbjB9uewN8nNzErHNlozuWBvDJO4TZj5WhxMWihrFjx1r8Lm671dDeznFKZ00DjAkREsp7hYM6q//4HgXlw+TH2IOpkr8DhgjWUBr8ZwHaeyR7/KARp453fqHhCen48PmLBy5nOR4HbRTHznD8HSsHOW5HwVE5pomauUTSy26VsrUPS/ntX5eyW76i3x8ybVRq8U2SnLVMUpPmSJKDlHGKr2D/TSVUsTEskKpuUWiwLo0YUByYiYrXDwMaqn0GJAS6NzN5RAdu7nWaEcxDtTarRGODSeyee243H5RvfvMx+fVf/6qRjnvvvdP8WdhzBt8WZomYURjAL7egGgwgRPD1WLlymZFFd7zMeiOL+IL4AZt68gIjimiZmbkjWHbv3ievv/62/PSnT5rGivP9EEaORJWCoer35LWnNrr62m8kYKheG/qmC6WngXaJbQ/cStG6LiSbT7RHjCss3nB+l+74HbZnYKyJ3su4wBYR+CyiseI9YrKGOZCxJtrPGZ/w5/N7pfG+EEjHr0j1ZXBxV9iECE0VBC2s/Bsi+CaKD0k0hv6WO6GkCifzj19yhy0f2ek2Cb1w3pEozIagcLZfcowSKfOPWumO1LvhASm/+TEpu/WrUnbzo5Jedbek562R5JR5kqibYM9IeWWBSHXfia/+1qeC45U8WLCXUkPh5QwoBgbK3me1XO4cWDvvZVBisGQ2yHd8E5iZXnfdciMWf/iHvy3//t//qfzlX/6JfPe735ING9bbqfkMjpAoZpyQkctjPhl6QCoZpCGU+Fj9wR98V/78z/+tfPnLD9oqMwQB9eWDFxxx+HrmOgKBbRfQWLEggM0W0RB6uPYr1oZOA8m9zmeur/5NxeHbvLf806aXZClgEND1HeyEI+u0ufNtGpxxD5JC/3F9qPsJQTxP/M274A+7joI4GDPQguNDxUo/THVoqVigQZ+PxsdYweQLfyrMkFzj021wiqOxu5ffiRuXBPyq/GQQPyr+ZrEN6XpwL5MdTIlovTDj8w4HDAGsPTX4z0KbOWi/amu1lXq2wg8tFP2MgBXFzHw5O8MvWVMvqRmLJQ2Juue7UvHl/1MqHvu/pPzu7yiR2qDXljoSVeVJVMFPq0Rc9a2fQNOKSTNVeFEvfV/7CBpCBxQaQxlpYtQ4FzhqJ+ASMAgxiLiBpOeO5wbsnA2yDEx8ZwbJihnOhPvOd75uvlH/8T/+hREp/sYExmZ9zCYhXJhMSCs6YI5EUD5/5iHHunz721+Tf/fv/kgJ1h/KN77xWGHzwjq7z9dlMWEFfBshbFgtiH8b+33xHDN2/FXQDhYTBghXtF4dHd5EODA4YciWGi0XtQsg3p4QZUeWaevCjwEDhOsHaHKdiSpasZAJ56sEOWFDWO/TNlDwvqNVcm19aXzkifc67lvm+y3+kwT6QxT0R0zd+D9BeCA/bnUeC12ikwa3yS7aXkiP1yTxOWOG2wsr6lfFJ+WHrB06dNT8qPCn4tgb/LhI1/dX7sXpnZMCmPAE098Qg3pnnKKfRLsv8H8jvyG+ECm0UmPGS2rOKim//deUQP2JVHz9L6XiK38u5eu/ZRoq00RV1+m9FRqvtp/FHY+8dFz1pEr0PUtW5SRZqx29OiuJcn0xujFF9Qx9hpdKKzNRPlqSY2ZLatZdkpq9QZITlkuiYsyAKnqkgkHEObYilHuuHwZO1OP4NSxdushOv8ex/Ld+6xumhcJJG/+om2++0UgD6nSWKTMguvgdmbpWmoH6hEgyaFMXa9asNO0Vps/f/M1fk69//Uu26syTToRSd6DeEDRoqV599S3zt0IQOVJVaekgZKJClGf4G4GIz4pfkTkQOM1Xuwk+t2XCpds4AEw0rEBji4qAwQHVzDvkTORoawoXIoAAseCBQNsMBtD6oOGBRNP+cdAHcUqH2MT7Au8AzuSOtLAlg+uTgA9W+LldztEqnTZNldvvymlVuZe4mYCg/XVpOLHHSke2YEHLxOKX6MQkk3Eb0GICxE/r1Cm2bzhl/lTRd4D8sacXJsqgpboMgPRgfrNxIdaB0bazUq9ugqSmLZT0kluk/KZHpPyOb0n5nd+Wspu+LOnr7pH0onWSmrlU5fpMSdSNF9swlDhpO+t/RV6MPuDq7gH0ba3bRFVeSVBGkmN1gB6toVIvoLnqS93wotleFBMkOX6pEar0km8ow71Pkg1LRJRoDbSyRyIgSgxUhO4GFIQ9Gpd58+bYJpd33XWb7dPzG7/xNSNTaKQeeeR+ufHG1eaY7c7fcyr6AAcID3sHMWO/+eYbzN+KVYLf/OZXbBsJ/M4gXpArhFSxuqN98Gnbu/egvPfeJjuaht/cEnr8TNImqKJACHqhyOdAtVVovtCE4KvinYCLASLtyHQgVYMF+gTaHtraHaPStY/Q9rQ3fkOQXvrKQIHmC9MZ7U2ccVLO3xA88uTPlIz3Xfo02iTGBX+NT56F5BA3ZIoJA1olCCHX/D2s9ON5JnOU20/++CRuZ16s75I3t7rQrQIknD6NibFz3yoPCBumSRd3+cW4A4YGbJmQKGPrhEvPozRCNXG2pJbcLGU3Pijlt31dytb/upKqb5rzeWr+9e6w5ZqxKrjYz2po2mpk0OqkvgwVSqzqlViNL5Crah38SyJWhRcppQ1VrYRqxm2SWvZtSa36N5KcvUEStdOMbAUUBwMiMzQCBCva0RmkCBx3sW7dGvmd3/m2mfX+w3/4M/njP/5dIwNLly60vX7izwZ0D4gQhGPhwvlWh2wp8ad/+nu2qSSHFeM/0v2MmRWZGTtTkYOZkSOOwIw2AREVLAAShXBho8W4WaU/8MLK+6rE03NwS9TZ2whSFfrF4IB6pD5pbz8J6lr9zpcKksJWJ/glFW2eEkHbovFhe4PTp88VtiLojJDvBPJCnyXEzWfkuaqqWonLeCMukJZoHPRHHMgPHjyi/fmAEaAoGeReNEnszI5Wij7u+xOfECG0YIR43pwjvDvcm3jpr/Rffx0CypmhkydPNmIWjTtgiIDio7LKVuxpZbvfaDcN+EGl19wnFQ/9gZQ/+PuSvv5+W9GXqK1X+Y725fK0zcggVYD3QUOiPKeVmJXkuA4NkCudWVxiEix810o2U9/YuU4zpUQqteRbkpy6Tp8br9dHTvUMFRhIEMi1tRxD4waV6OCEUEbrxMobBP68ebNkzJhLN/ML6B8QQghJnNgffvg+MwuySnLOnFk2+4+Dasf8gSDC/wQfEQQLmxbGz/WjjWg/hCtaAL8xa39Bv0CzgIDCpwuzTRxO0JWZyRMtAn0nYHAAieJ9ZaUaWh/aPfquAuofwvvFFyeMSEPA4/eUCrQ6ECq292CTTkx1xB9/9+l3bPBJfyWP8etO0z3WtNiMMZpLd0FB/ySfECpOGKBPxU3KTNrcUUCdWqpOJKw+MN+hxfP5o8ws0IBQsYJ2375DNhmImi9JwmmpJmh/7V5DHDB4MEJVM06kRokS+0NF67vjgnYIlffIbX6/Qm0xMlhD9J2nLsuUWOFnVee0Vslafcn0b0nrjUlltBxjUV6tjTNNklPWSmreg5Ja8KgkZ91ppj40VmiuAnoHAzNnezELjDtq+gEGcw97U9FQ3I92K2BwQB0jDPAJcWcIcmTK3ba7PD4kcedeDwQEBAmTHpoCFgswo3cars4XCuGCie7IkWNmLkTgFvOLKQUIO7Z54Agd4nIErXPgIy3Kg+8MvnTkJy5EA/oP6haSSt3yvtJn0Ex50sR1AkQIEo2TtiMSfTf5OlLSblsc7N2738xz3Zl6ITWQnu58kjAJQrJnz55uBIx9tHyeAZo1DmNnD7zoeX0AkzbEhxXFjD2ULwr+5vq0aVOtPvjbx008mBOJlzIwueDd8HGQV8yKrB6EEMbjDhh8oKFKKKFK1o13K/O84oOqZ+Ufe1GdP+XIVaSPXE6MDFJVBImUdv5KJVc1WedvVaefOLJX6MBhZ/jMl9T0WyQ1/yFJzntYkjNu13tmGdkKGqrSwSwSjQLqdQa+uGaBgYbDk9lBHXMTB+VGB8QABwSXD/0FZBUBwXYUHNTLHjwQpnh9M/ZDcNxxJR02g4eQISBov3jz8DxHduzff9AELUTMm0FKBXGQHuT6k0+22SfxxAURpBytBM7DjlQV3zAyoO+griHZaKkwpbmtBOJIGHlgpRtkAvNX3Dm7FLBykHcdLQ+BRRHxKHx+IP+dTuSXNjbkBU3W9OlTbYzhmWh+MCuiUUL7GSeBEDUIG87u9O14/PyJJgtNOmQzuliDT/yoDh06rCTzqJFEf4140PpRj/RXCFvAZQD+VOxizmHGlaO1c3RO4vMXmiV34oDkju0TYbd0VgFeAYxc9kDf15BIK7lCazW2Q5Lj2yVVn5TUlAWSWvhlSa/6PUnNfVCSDQvDlgn9BAMevi+zZk0zgc4gFgWDD4KbAe/jjz8zDcVAiMNIBAM1dYRGb6ArrmgP2mDBgjkqhKboDLpKf+0UJF6oMAtva2PvoIwJBPbYQbDh10L7RIUHAbMKGqZt23aYgOyrbxXpsacQgvrDDzebyYZ0CtkxkCTEkHygWejZNyygv0DbM3FigxHXeP3SHuxHBonYvPlTO6qFRQp9eWfpOxBotF0ffviJxYHzu+97wPcvNDyQJdq8vLy4dYDnqqtHWx8lz5CvKCB9OMOjBaVf+rgBZAxSVV9fb2Qsmgfg4q6yCcW0aZNMs+Ufd+VoM80d8ft4+aTeeI53DE2bc/wPGHJAokaNlsSYSY5cXTwiBg1j1jYAzR3eIbmW8ww6hWuXFyN/xOI9ICSUXFVkJDmuSlIzlkhq5m2SGD1VJA0J6PqiBfQNfrdiBkeWLkdnewxafIc0vP32+7Jx44dGsKKCu1QwYLLJnzvUtPPQ5asZrm7a7TDpjRs/MAdyTCYQrP6a2QCaJC8IY3LE/kYooAUioB1its6ePWgc46ANIUU4A3Pw9YcffmzmHByCe6t/rpMX2uzjjz+VN998V+M5ZIIwKtC5j8UKmJIXL55vfipVVV0JesDgAKI9Zcpk87vzq0Wj7Uh7Q6Qg0Wy/8fnnu4xUl0KsiAdtEVrpjRs3aX/5yEg4fYB4o4DkMG7MmDHVtD3dLVbhN/opJHvKlClKZqr1197fDfoXhIrJHn6HcQLpwe/4hWICdCbCwoVuQBkh/+7YG7cdQ9j64zJBGwcNVWriLEk2TJNEVa3+VmhX/cT0lz24XbK7NymxOufMgAMB7wUaL9N6lTYej3xS5cGLgrN6hc5WqscqoZqo02JWEFw7VTBU8H4a7FjMjJOl0VH4gRK/BIjVm29ulAMHDpvaPur/UAwMYBAyfCX27j1gAv2NN961c+wwTQx0NdqVBsQQofP22+/JU0+9KL/61fMqyN6WrVs/N20B5Y7PvnsC9YlAxDmYeIstiycqhAIzfm9yQTCwXcP8+XNNe4CgiSZJ+viuIGARtJC//fs5G81pMYrlj7zQxl5j8dZb79n+WN1pPtCw0X9Y1YjmIMz+hwbUK2Rg7tzZpmmJa37oD/RL9mV6990P7Z3lkG6IsSP7l7Yd7U8/RVuENpLJ01tvbbR3FpIVBV2FxRIQHU5HmDFjmvW/7kgPgPhxP30U4s0eU70BIkZ/cj5PlRfHoThwXme7ErYkIY04ySwGNsylDtFSobHqKe8BPUHrmbrupb6jSJRrW46bLKlJsyVRO85pqwrPs6t67vgByWx5U3JHdkm+WYlVH+Lugky7krTTkj95SMNhybe2lETSrp2ecLFe9cWCSAUyNWhglsbSYk6UZ/aL1iM+yDCgQRAwAT777Cs24DITZmM9hCzCn4EcZ1Y+0WQgkJkhI5QxO/HMM8+8pMTjOXnxxdcuzqB7I2bDFX5PIIQQRPPll9+Q5557WX75y2fl+edfUYH2gZWb8mM6QzuHgEKz5evK1ZczHVKP1Cfmlo8/3mLE1S2L7xxU/HcEKQIEIkPb8Ilf1ZIlC4Tl5W4xQedz3EO6rOKCAL788psmONGwIWwRpuSPPBBoa34nL+yJ9fLLr5vmwmsp40DI0m/Yy4zNTNF4oskIGHygEcKvau7cmUZqvLYqCvoJJjz65htvvCOvvfa2EWn6FGSd9vZtTbvzHuInt23bTntPOW/yo48+NdMZ72dXQuO2UcAfiQPE3fEuPbtfoP1GwwapYs87+mdPxIf0II/E3ZvPE2OV3wPO+/H1FrczW06xPks6XYo32PBxD2UaVwrUM0TFxvDu67wLlERx1Exy6nxJjp8udpwMDUDI5yTXeEqyn78v2e0bJXd0t+RbGjX+jEurN3BPViexrTrxO/OF5A5skYzGk9nxnhKrg/Z7b/EEZhEwYNCXGajRVLHvFA7SDHrxgYbBCKGPkP3hDx+Xp556wYgDgpkl3Jw2zwDNgM2y+z179tlA/uqrb8rPfvaknVv3zDMv6gD/lhErNCYQs4Hup3OlwHJ1VtWhwdm+fafVDQ7CCLAf//jn8oMfPG7lfuGF1+T99z+SrVt32Mn53Adpwc+jU6B9YfVI3UI8MbNxL0Soq0BzZI69wxAgzpTiNFfMvBGyCDpMLTwXFS78jdYQZ/VXXnlDfv7zp+WJJ541oYsAhQCSB8guGinK9fTTL8iPfvQzeeml101TeamAJT8cV1RhGgvS5hMBGr8vYPDg/IGm2mpRTHCQ6ijZ9XXPZAet8NNPv2hnRz777Ev2zrLwhHaGdNEvN23abO/jz372lPziF89qP/zItu0gmq7tSH9i7yjMvPNk2bJFpuWOL3CJA+JDHqdOnWr3x/MbBX3WabYwc040gu4mCcVB/uhvEDBWReLO0B2pcnEn7f3AXF5fX6ekque8DxxWiYXvVyt8GaLl0O8Qqo52yZtjeYmDOAqR8kolVQskOW2hJMZO1g5SmBSQRqZDcqe/kMymF6Rj86tmDnRkqHh/6URe8kqocs3nJPfFXslufVs63ntKOt54XNrffFwynyuxOn3USFdPSP0nReH7sEC+rUVyezZrRWzTN/qCq6QeOlSCjVFZ5VehwZ//1y1YEThGkhNXaVihpb82V2yg2cBRGNU+WhBmpHGgJVi0aIEsX77YBpvewMDkNAvswN1m8ba0tNoqIHfd3cN1BCukAL8cZr7sMcPKMrQaO3bsMVMD/jfvvrvJBnD8Mj77DHPYMVtJiHYGIuU3E0Tjwsy7mE8GAy+zaeJG0GMyjIOZJnvgQCjQ0sTNIaWAfFCn5B8hRJqMET4/Pp/MhiEOCAbIEWV7/vlXTYMDYeE+nkNTh7mNMlM/kEcEGJ+Qk9279xqBQTPw2Wfbzfmb9kR7BBHF/wmtFvHFgemEXdlvueVGK7fXKvLpA6SW1Vu0JYjXqzfJuvyxnN3lZcuWbVZ+fK8ggmgmMQFB/or51QAEIIScPHFEEcI+vlKLclDuTZtc2fg7ep08O03XbCUKK00wFkurLyDP9EvMX/Q1EI2TfoK/zsqVy4yYIGgvF3h36A+0vd/p3ueNuoFEkKe7775d81VdeDc7gWaQekeDwyQGX0U+i5Fe4iMN3h36Ke8ShAoTNeSK/vbBB5utD3722TbTZsZNfh4QekgO48qdd94qq1YtM3Neb1pJ8kRXhuTR18gH+XX7Tl2aXzRf9KM77lhnfdxvl1AMLm7n28heV0xs6Nv+vYiCPNC3mDjSV+fPn23vdbF7S4aSAMxM5mCtwjzf2uQSMnlVJanx0yXZMNUOAxbIwZAFTbejzdUmafn6QnNz7qRkP31d8s1nndZH+w9mN0xwRm4mzOy8vxgybZI7sNVW5uWbzrjycb9+sjlnctIcSYxpKDieR+LhPiVeec0X6VobWl0n9F6V35CydpUDZ48pMdN7IE7+8XYd/5Qg5RtPacfR8sEnIER57eOFeK3u7b6zkjt1RHKHPpfsro+UUL0p2e3vSVb/RmOVb1K5wfM6dnKsDTsIOIvXpWUOpOoaxFCQKsAMDtU5AwyDKqQA8uMGancPLwUCAKHMMSVuo8Hj5gOE8N21a48NbNu371LSsMsIBWYFtDEQDT87hawh6PgNMoWzKwMp6UcxXEkVJgmEIqYSyCP3RwUjK7CcCbTZys5GnWy+ST1BRCkPz3vNEJou/vaarGK+L+SBdmV5+cMP32tbL2BK8WkioLiOFoC6RbAQ6C9akkvakPxBPDBNIuQRRuSNPYP4xCcMUxF9IVq2KFiWjjPxunXXG6lavHihkZO4kCLvgVR1YuCkKmGkinriWfe+OpMez+s/vaezvH4igzmPdwjixEpe+hu+dWw7wHvKFgSQE8hTvP75m/RYiAAh4RB18uicw7veWwzkiXxAqOgDjBva8pbPKMg/Js0FC+ZaOt682FMaPOPiZmf2g/YOFbvfkcJaWbhwXslx94pipEplFf/sQOCySuUKOcmdPSG54/uHJijZIW2BNEEcOGDYv4MDJVX8ntE+cWSPK5+WtVNrpIXkyJnyCjtmxvyY8F26cN7SIt3caSU7Jw/ZNgl2PA2rRCE0ED8C9aT3S0uj5PX5i3HnNJ9KFvPNZ4xY5RtPFj41nDshecx7pw5LnrIf3inZfZ8q9/hYsgX+kcPch08WWjQldeSLMidHKwkcPw2B5/IRw6W/BAT0EwwsmJQWL15gs1AORUYjw4DOoOXBfQSIFUSEgXnLls9NYL7/PqvL3IwX4oBfDgINYuaf1f/bJ7uBMwhCLBDsCP9oOsMTbuBBawPphFQ60uJA/imiryPuQ5hRPkgKmqpPP92qdeU0QQTqDdMb9YjJBaEWrwf+hnjQPpCAVauW27YFrj4duI5ZiFn4TTddbwc4Q1a90ItG6Z9DEOEXhmYLUhUVeAhgyubLEgeEClKCtgJSBaFiH6I4oQoYGkCqIB+Y4NjXbMUKyL7zV4o3l2+/9nZ3biPtC6mivT15du8pAu3S9uZvyDqmXc6pJDDB4LdS2xvSD4HBF4uFDOS/GEiLbSOYIEGA6GfF+l8U5AHCB8lzWu/u/arQemEmZGJUStz9BvGqQM8e3S2ZT151pqiNTw5NIO53fyXZz940klGyD1KpUPKDRipRWe3ICKB8mgYbdma3va1lfEUymn52+7vmx2S/ffqaZD5+ScPLklOiY6TO50sJTbJ2vB1Fk158iySnzJNk9RhtTOLnHh2ztP7QQGV2fSAdm1+Rjg+e1bJS3iel/b2nJUO5CyHz4XPSocQxu/sjJZoHJG/bMkAgXVpGrNB8tWhAy9VN/YTRK2BQ4TQhDTYLvf/+u+W665aZ/wSz4fggxWDEYEbgGsQJIc0n9/tr3BcduLiX6wz+DGys8EEL1N0gO7zg6gABgYaG1XaswnJHxKABcueheUTryNcFZUdTR135+gLRe6JwdZszwoQjOmcE4gzu/amioA6py+XLl8j69bfIrbfepMJpspnjyHtPbciz0VAsL4D887sjVMvloYc2KIFbZUIwrlEJGDrQBmiXqfcbblgl99xzR0F7OdZ+p53iwGzYU1vH29u/q2j1MMfdddetNuHC9xLNXrH+0R24l1V3EBreHQgNiHZJ0iMvbJHAuAABimuvi4FnmDygeaJfQvbifZ0/uQ/zJcRuyBdTaHnRvOTOHpPsgW2S3bVpCMOHLhzaLjm0OJCGwQTar/rJkhitpCd6mDFlbG2SzKHPldg8Ix1vPi7tr/+LC6/9q/79UyM8ECw0R5j0Lj4LysolWT9FUktvkbKVdzofK4gbfTfafjoZyJ85qvWI4/m75muV+fhF6YCwffa6ZHZ+INnDO50GC80UsGSIQ/t1WYWStvmSmrPSyBt/a2fghksQSNU1DAaNnoLrUH0HAw0zYDQdDz10jzzwwAYjDwxUDLAEF38n/IAcDVFwv38OMoVT9e23r5Mvf/l+EwYMcm4VTvFB2pep+1C4cRDg4/NxU4+d3x3wa5o1a7oJmF//9a/IY489ZGYrBAb1B1Hy5NLH5xGvp2Jl5hlf1wgC9p+CJH3pS/fJ6tUrCia24nVFfJiMMNNs2HC7krAHtS1XGFkmrmLt1xO41eeHrELa0GIS98MP36OCfIUJst6En4+nWNArkTB4IOrONDq/R38b7DRLhUvfha756sxnKeB9gqTQLx577EG5++7bzLxFO/k+VGpcoDMfOSNnkLYbb1xtfe+ee9YboWe1cLF+2xO4n3cDTRLvCVooovBH7fgAOcIU7CZbo0smPtzH9gscjszzTESi8ZIOTuncw/jjJnKDLUILbWoffGrQ+jf/n8sVLprmiqGQPwsFRL52B/zBkuOmSpL9peoaCr8WQBlxLj9/SnInDpmJMHd0j2mL0DLZtgZGdJSAmbkt1m8gVhpnauFNUnb9/ZJeud7SYfd1yxz152FpaRnROmmcFjRtK7ddL/zP/taxtapOUlMX2EHNZesekfSy283/65JzByMIpOqaRVcNSLHgBr2+DXyA59BsMJgyUN9773rz4cGkhO+S95lhoPKDdrHAoOYHNu5nEEM9z2yaOB988B65445bzPfLDXDda6r8DLu7wPX+lLUrHMEpFr8PXpDwCfHEB+iWW9Ya8aSO7rvvTjOFIXj8jJnnqAPqolg9RYO/h2eoE2be1Nc999ypcd9lZh4EUm+rrZwWcJyZ5O666za5//675LbbbjK/M0xEEFgQT79YYJAiPufzNMe0X8S3YcMd1j/YJbsUMxBV5+sxGhBsfNKGvn4HC749fRrxwPXBTrNU+LwRus9f4eYeQDxsEQAJuf56NFbrLdBXMNHRTyEcpfZBb6abOHFiQeN5q/Xr9etvtoO/0YSVoj0qBsrE+AHBx3xNv+pa3oT1+/Hj6/W6WyXI773B1aXT0vJ+sP9UsTqFpOHS4FcglhJ3aSiMC4X/7E8a73IFl2AkdIPC/ZbHvkDrNlkz1kx1yRlLJDF6rIsLAkfQfmOrANuazexmAb+qthYzwSWS2l84oibqQO/B2F2mbTF+mqTmr5GyVXdLevU9ktbvyQmz3Aahmr4RqjzEMYP/Bb4LzrxHIH3IlMqQREWVJMZMkNT0xZJesk7j2iBla+6V9KK1kpw8VxKYGHuQF8FR/RoEJiMcUnF0ZTUNvgSosqMBwYk2YenSBTbI9Ac4kGNighywpwv+PAxEDNAMRnx2DlxuUIMY8RzXUO8z2KPCJw72wML/hlVraF1WrFhm8aJVIY5i3QRBgNO2c6T+wn6Ll5UBctGieeYLxoydmW5fQTo43uNrgsMupKWurs7KzIyaAMlEY0e9NjQ4fwzSYo+chgaOyZhsPifMlLkfcx1tg+AoL08X6gtTC/VEnUXrq8zi6qyvhoJT/BIlMWsL9bXU8kB8pRAB4qa9IEPExwwdgcbznXlxbUd+onlCaLr8VJlQnjp1ktUxvjQI2ZtuWmOOxMRZan6oW5yi8THrrFvXhnynL7BXGoK8J61lKeBZFnCwQICz6yiLa8fONHH4p71WrFhihIT2ulzAr4k+TaCN2CKjM2+19v5C2Gl78kV79QTKSz+CVPAs7wHkh7hpS9rUt69rcxd8/6MNqXOep02pF3y1mDBAxiHPaGa5Tl762zY8hwYX/y1W/3GMDH3Sv2f0NdKhr2NaJi+9ld2DLEEK/UpI0sDHj3olXuoWf0PKQtmoo+60vX0CQh0CceqwCE7c1O0onXiOqrl8oUrTK+xUnpqx2Jm4UgVtDCSk+aw5cieUACUrRimxqDVihEnM9otqmObu7Q5cw6+KA9KVkECY0BYZ0XE3WLldUAJk9+o7XFktiRoluBNmOtPbxJmOJMXh42dlXm2DJOunSlLzx+pJc27XvmurBbVMEDMX9Ls5vleak3xS403U6bPjp0tq2iJJLbheidRNStSuN21Vko1GKyKHOHeDhAqD3pjI5YNmJdd4Qjpe+Cdpf+tnbikkldxdY2nOE9V6S50y2VoN5QUVXjFQTGWpyboZkl7xW5Ja/h1lt5f6lFwLYOPIxsZGW6XmVooVbMgRMFDOmjXTBmZmhQMBXcwPVggpVrDt3MnWAAftu1u+zyaBzBZo8qSREgYxZoxoMtC4sOMxn+SHAZSBnEG9J5AuK5twnmYpNsIoCroFaUFoIG3uHK/+kSrKgNBn1WJ8STnXvTYAMgFRiead6wSc93mWPbuoF1b8kXecgRGgOARTj26FVWd94bPCwI8QgQSj0UMAQDQgbNQXJA7B2FdQR+ypRb5wmGdPLBYRsEoK53i383tTJE/4p9B+HNw73toMgoewc47A9SroR/VJuFI3OEazbcOxY8csT1EQD+XnqBH8xmjD/gpuD4QqZWVbiHh7AvoNwpz2pM4hkJcLrMCjr7G1BhMjfPGioG+hqUHbRL56e0+icP3QnafHQgpWc7LyktW57FFGv+RaBrOJgrghbvRpSDuLG2hr+h9mec7fY3LAJsEDbBIDeWMBC3ni3WCS6EHeXT+YInPnzrIJRqll51niYvLFqmP6dhyQ19mzpxtppO0HA5ifzMR1ZKc7DLi1mcwUrl5G6LvLQcX4JRH0BdUftcHYu+ncCXNiF1bDQQIhFqxMVJJjDuLjZ3Qvp6NgdV/jScke3iHZHR/YHlI5diu/wDYSKr81DiM/5UrcRtdJcuxkI1TJKXNNw5XU/ElFL3LbNF9Zp+1qOiO5MzpesMIRUyKrCXF2Z4Ul2irKqMTNCJWSN+JP1E+yva/4GwIH6bJVhiV23mFIqk5Jx4vfl/Y3f6oVcNyYZbeF0ZyXTqq0orVzJMfOkfTK70pq2bevWVLFAMyAiHBmQPaOzh5UNwKpqqraZpb92WKgGBiwWIbvSIObDUJE0Jqxki+bdV2R2R+ECRLCYE0emI2i0UFAMCOG9EEmegPdG7JGmmiSGJDjIB7MFaSDMC4l3mJgpVtzs0snOtB7MLgz86cs3a0acvl1Tuho2Fy+3c7Vvp4I7e2ZLqTKafUqrb4I+KyQDt/7Ul/dgXyRHqSPfPm28wGtDuV3wt2Zf10+RmuoNkHHd9qPa+Slr6SHuiAtt3dW12GLuNCojBpVVRCk/S+rB23gthFwu/bHR0pf75SLd6QvxGWgoB9D+ugTtEt8GKc+IDLO6fzS/dt6A+1ImTs62i0NSDNtzjYTrg0696CjruljaKWpC+qfd9XVC5pp1/f6mofuQHkZtyg/fcK/Bx5+7OiPVoxyUza2MiH+rnB9zL9jpDMoQDZh+mJLAAgVmqF4Z7sc0CSNQEAkNGijFX7X/oXv0dkTJkMtv5AtJVaJUSpDR9U45/BSQLkgVhfOO7KDY7gSH8qdV7KWIE1kPtqjytFKdjTuqjrb4sG2eSB/aLJ6habDOwvxZx8qNIEQN76znxVbL+A3RVyQwzKN19KscmWpcBouR6Y0T33oQ8OOVLESoOP9ZyTz/tOSPbDV9oa46EQWLxidoDdSZcXLa71o5ZTrYDt1raQWPSbJWXdrhQ0OWbga4YUkn1RRsT7DYDSYgyFw6bkZYXQFG8Lad0XSY6BmQHTBmZQI/c0PZY0PvqCQpMY78LL6srl6db/56Pib732pU+JyPizUk3Nc9/XlyhOtr06zqf8+kPrqCV7gkg8neDsK371wd+2HAPLaxGh++gtfHy6NrnUL+Jv4B5JGFKRD6Knf+PYcFDNQHxDNW2de3KdHX/pad/BpuPZ2AaLl2tslnErR3u5w7nj/G+y+5+HyRR10bRvqgiQH0g8667VQsQr/1cdNuQa1bCSAnIPAINiuBKzutM6otzhxoZ4hKdwUqYyL9/NZMiirxoeGLqMEB6dx7VNWfotP00arCamBFENskN/83p86p06J24KmS6A8BCNMhUC7+rLbb/1r3+FFqoCy1eyRnZLd8b5kt72j33e5zbqwv1IZ0YLSCXoiVRQtoS92GTbgCZIcv0SSM++U5OTrJVE3q9+VFjD4KNYNh2pAvtrR3St7JevL58lnjayE9huZCG0dMKigI/nOBHxfukr71PAjVQD1YMt5yZ0+6jb/UnKVO7Rd8s2NxiaNRQLNeVFSZSVyjDRRPU6SE6+T1Mz1kpp1l0jlWJGyKn1ImW9AQEBAQEBAwCBheJIqspRz5/3YSdFsIc+KwM/fk9yJAwW7s1PddSVV2KL5PSWs8kvUz5fU9NuUVK2UxJi5khg9wZEpI2VhZhUQEBAQEBAweBiepCoKyBWnRh8/YEs6IVd2RtLpL4xcJatykvCkim0VKur0+0xn6sPMN2GFJGqmSKJstJY2EKmAgICAgICAocHwJ1UeOMm1NUtu/xbnb8XW+kf3aAmalES1SXJMQpI11ZJoWCrJqes0rJXkuEURzVRAQEBAQEBAwNDh6iFVgKxyYnbjKcke2iHZrW9J9vAmSaTPSnJig6Tn3CSJ6bdIom6OJCo5ZTv4TQUEBAQEBARcHlxdpMqj4Miex9/q5B79oVUSNbWSbJgtieqJbv+pQKgCAgICAgICLhtE/n9hZY1/VepOFQAAAABJRU5ErkJggg==;" vertex="1" parent="1">
          <mxGeometry x="449.27" y="230" width="321.46" height="56" as="geometry" />
        </mxCell>
        <mxCell id="ph5oyXjZ7SMRdZd0G6kK-24" value="&lt;div style=&quot;text-align: justify;&quot;&gt;&lt;span style=&quot;font-size: 14px; background-color: initial;&quot;&gt;Androi&lt;/span&gt;&lt;/div&gt;" style="text;html=1;align=center;verticalAlign=middle;whiteSpace=wrap;rounded=0;fillColor=#FBE0D5;" vertex="1" parent="1">
          <mxGeometry x="545.86" y="405" width="78.29" height="30" as="geometry" />
        </mxCell>
        <mxCell id="ph5oyXjZ7SMRdZd0G6kK-25" value="" style="rounded=0;whiteSpace=wrap;html=1;fillColor=#FBE0D5;" vertex="1" parent="1">
          <mxGeometry x="540.01" y="450" width="90" height="40" as="geometry" />
        </mxCell>
        <mxCell id="ph5oyXjZ7SMRdZd0G6kK-26" value="&lt;div style=&quot;text-align: justify;&quot;&gt;&lt;span style=&quot;font-size: 14px; background-color: initial;&quot;&gt;IOS&lt;/span&gt;&lt;/div&gt;" style="text;html=1;align=center;verticalAlign=middle;whiteSpace=wrap;rounded=0;fillColor=#FBE0D5;" vertex="1" parent="1">
          <mxGeometry x="545.87" y="455" width="78.29" height="30" as="geometry" />
        </mxCell>
        <mxCell id="ph5oyXjZ7SMRdZd0G6kK-27" value="" style="rounded=0;whiteSpace=wrap;html=1;fillColor=#FBE0D5;" vertex="1" parent="1">
          <mxGeometry x="640" y="400" width="160" height="40" as="geometry" />
        </mxCell>
        <mxCell id="ph5oyXjZ7SMRdZd0G6kK-28" value="&lt;div style=&quot;text-align: justify;&quot;&gt;&lt;span style=&quot;font-size: 14px;&quot;&gt;Thiết bị nhúng Linux Raspberry Pi&lt;/span&gt;&lt;/div&gt;" style="text;html=1;align=center;verticalAlign=middle;whiteSpace=wrap;rounded=0;fillColor=#FBE0D5;" vertex="1" parent="1">
          <mxGeometry x="645.86" y="405" width="144.14" height="30" as="geometry" />
        </mxCell>
        <mxCell id="ph5oyXjZ7SMRdZd0G6kK-29" value="" style="rounded=0;whiteSpace=wrap;html=1;fillColor=#FBE0D5;" vertex="1" parent="1">
          <mxGeometry x="640" y="450" width="160" height="40" as="geometry" />
        </mxCell>
        <mxCell id="ph5oyXjZ7SMRdZd0G6kK-30" value="&lt;div style=&quot;text-align: justify;&quot;&gt;&lt;span style=&quot;font-size: 14px;&quot;&gt;Vi điều khiển&lt;/span&gt;&lt;/div&gt;" style="text;html=1;align=center;verticalAlign=middle;whiteSpace=wrap;rounded=0;fillColor=#FBE0D5;" vertex="1" parent="1">
          <mxGeometry x="645.86" y="455" width="144.14" height="30" as="geometry" />
        </mxCell>
        <mxCell id="ph5oyXjZ7SMRdZd0G6kK-40" value="" style="rounded=1;whiteSpace=wrap;html=1;strokeColor=#F7897D;fillColor=#F7897D;" vertex="1" parent="1">
          <mxGeometry x="520" y="380" width="300" height="10" as="geometry" />
        </mxCell>
        <mxCell id="ph5oyXjZ7SMRdZd0G6kK-41" value="" style="rounded=1;whiteSpace=wrap;html=1;rotation=-90;fillColor=#F7897D;strokeColor=#F7897D;" vertex="1" parent="1">
          <mxGeometry x="660" y="370" width="20" height="10" as="geometry" />
        </mxCell>
        <mxCell id="ph5oyXjZ7SMRdZd0G6kK-44" value="" style="rounded=0;whiteSpace=wrap;html=1;strokeColor=#F7897D;fillColor=#F7897D;" vertex="1" parent="1">
          <mxGeometry x="520" y="390" width="10" height="10" as="geometry" />
        </mxCell>
        <mxCell id="ph5oyXjZ7SMRdZd0G6kK-45" value="" style="rounded=0;whiteSpace=wrap;html=1;strokeColor=#F7897D;fillColor=#F7897D;" vertex="1" parent="1">
          <mxGeometry x="520.01" y="380" width="120" height="10" as="geometry" />
        </mxCell>
        <mxCell id="ph5oyXjZ7SMRdZd0G6kK-46" value="" style="rounded=0;whiteSpace=wrap;html=1;strokeColor=#F7897D;fillColor=#F7897D;" vertex="1" parent="1">
          <mxGeometry x="810" y="390" width="10" height="10" as="geometry" />
        </mxCell>
      </root>
    </mxGraphModel>
  </diagram>
</mxfile>
